<svg width="1437" height="352" viewBox="0 0 1437 352" fill="none" xmlns="http://www.w3.org/2000/svg">
<g clip-path="url(#clip0_75309_2433)">
<mask id="mask0_75309_2433" style="mask-type:alpha" maskUnits="userSpaceOnUse" x="0" y="-1" width="1438" height="354">
<rect y="-0.110352" width="1437.12" height="352.221" fill="#D9D9D9"/>
</mask>
<g mask="url(#mask0_75309_2433)">
<path d="M1181.43 251.92H1238.43V385.219H1181.43V251.92Z" fill="#333333"/>
<path d="M1212.52 245.195H1238.43V252.782H1212.52V245.195Z" fill="#333333"/>
<path d="M1223.4 240.884H1238.43V245.195H1223.4V240.884Z" fill="#333333"/>
<path opacity="0.06" d="M1205.27 261.232H1214.6V268.13H1205.27V261.232Z" fill="white"/>
<path opacity="0.12" d="M1205.27 278.304H1214.6V285.202H1205.27V278.304Z" fill="white"/>
<path opacity="0.19" d="M1205.27 312.448H1214.6V319.346H1205.27V312.448Z" fill="white"/>
<path opacity="0.14" d="M1205.27 346.592H1214.6V353.49H1205.27V346.592Z" fill="white"/>
<path d="M1324.45 266.405H1402.52V337.797H1324.45V266.405Z" fill="#333333"/>
<path d="M1336.71 260.024H1390.08V290.719H1336.71V260.024Z" fill="#333333"/>
<path d="M1318.75 311.413H1396.82V382.805H1318.75V311.413Z" fill="#333333"/>
<path d="M1331.18 305.032H1384.55V335.727H1331.18V305.032Z" fill="#333333"/>
<path d="M1214.77 301.928H1292.84V384.184H1214.77V301.928Z" fill="#333333"/>
<path d="M1227.03 294.685H1280.4V330.209H1227.03V294.685Z" fill="#333333"/>
<path d="M953.443 326.933H1031.51V406.43H953.443V326.933Z" fill="#333333"/>
<path d="M965.706 319.863H1019.08V354.18H965.706V319.863Z" fill="#333333"/>
<path d="M1122.71 162.766H1209.93V384.012H1122.71V162.766Z" fill="#333333"/>
<path opacity="0.46" d="M1184.54 172.768H1205.61V176.734H1184.54V172.768Z" fill="#E6E6E6"/>
<path opacity="0.34" d="M1155.7 172.768H1176.77V176.734H1155.7V172.768Z" fill="#E6E6E6"/>
<path opacity="0.52" d="M1127.03 172.768H1148.1V176.734H1127.03V172.768Z" fill="#E6E6E6"/>
<path opacity="0.54" d="M1184.54 181.907H1205.61V185.874H1184.54V181.907Z" fill="#E6E6E6"/>
<path opacity="0.3" d="M1155.7 181.907H1176.77V185.874H1155.7V181.907Z" fill="#E6E6E6"/>
<path opacity="0.06" d="M1127.03 181.907H1148.1V185.874H1127.03V181.907Z" fill="#E6E6E6"/>
<path opacity="0.15" d="M1184.54 191.047H1205.61V195.013H1184.54V191.047Z" fill="#E6E6E6"/>
<path opacity="0.42" d="M1155.7 191.047H1176.77V195.013H1155.7V191.047Z" fill="#E6E6E6"/>
<path opacity="0.48" d="M1127.03 191.047H1148.1V195.013H1127.03V191.047Z" fill="#E6E6E6"/>
<path opacity="0.18" d="M1184.54 200.187H1205.61V204.153H1184.54V200.187Z" fill="#E6E6E6"/>
<path opacity="0.28" d="M1127.03 200.187H1148.1V204.153H1127.03V200.187Z" fill="#E6E6E6"/>
<path opacity="0.29" d="M1184.54 209.326H1205.61V213.292H1184.54V209.326Z" fill="#E6E6E6"/>
<path opacity="0.28" d="M1155.7 209.326H1176.77V213.292H1155.7V209.326Z" fill="#E6E6E6"/>
<path opacity="0.56" d="M1127.03 209.326H1148.1V213.292H1127.03V209.326Z" fill="#E6E6E6"/>
<path opacity="0.41" d="M1184.54 218.466H1205.61V222.432H1184.54V218.466Z" fill="#E6E6E6"/>
<path opacity="0.16" d="M1155.7 218.466H1176.77V222.432H1155.7V218.466Z" fill="#E6E6E6"/>
<path opacity="0.4" d="M1127.03 218.466H1148.1V222.432H1127.03V218.466Z" fill="#E6E6E6"/>
<path opacity="0.1" d="M1184.54 227.605H1205.61V231.572H1184.54V227.605Z" fill="#E6E6E6"/>
<path opacity="0.17" d="M1155.7 227.605H1176.77V231.572H1155.7V227.605Z" fill="#E6E6E6"/>
<path opacity="0.08" d="M1127.03 227.605H1148.1V231.572H1127.03V227.605Z" fill="#E6E6E6"/>
<path opacity="0.49" d="M1184.54 236.745H1205.61V240.711H1184.54V236.745Z" fill="#E6E6E6"/>
<path opacity="0.58" d="M1155.7 236.745H1176.77V240.711H1155.7V236.745Z" fill="#E6E6E6"/>
<path opacity="0.58" d="M1127.03 236.745H1148.1V240.711H1127.03V236.745Z" fill="#E6E6E6"/>
<path opacity="0.26" d="M1184.54 245.884H1205.61V249.851H1184.54V245.884Z" fill="#E6E6E6"/>
<path opacity="0.37" d="M1155.7 245.884H1176.77V249.851H1155.7V245.884Z" fill="#E6E6E6"/>
<path opacity="0.34" d="M1127.03 245.884H1148.1V249.851H1127.03V245.884Z" fill="#E6E6E6"/>
<path opacity="0.55" d="M1184.54 255.024H1205.61V258.99H1184.54V255.024Z" fill="#E6E6E6"/>
<path opacity="0.12" d="M1155.7 255.024H1176.77V258.99H1155.7V255.024Z" fill="#E6E6E6"/>
<path opacity="0.6" d="M1127.03 255.024H1148.1V258.99H1127.03V255.024Z" fill="#E6E6E6"/>
<path opacity="0.02" d="M1184.54 264.164H1205.61V268.13H1184.54V264.164Z" fill="#E6E6E6"/>
<path opacity="0.28" d="M1155.7 264.164H1176.77V268.13H1155.7V264.164Z" fill="#E6E6E6"/>
<path opacity="0.21" d="M1127.03 264.164H1148.1V268.13H1127.03V264.164Z" fill="#E6E6E6"/>
<path opacity="0.57" d="M1184.54 273.303H1205.61V277.269H1184.54V273.303Z" fill="#E6E6E6"/>
<path opacity="0.38" d="M1155.7 273.303H1176.77V277.269H1155.7V273.303Z" fill="#E6E6E6"/>
<path opacity="0.25" d="M1127.03 273.303H1148.1V277.269H1127.03V273.303Z" fill="#E6E6E6"/>
<path opacity="0.15" d="M1184.54 282.443H1205.61V286.409H1184.54V282.443Z" fill="#E6E6E6"/>
<path opacity="0.47" d="M1155.7 282.443H1176.77V286.409H1155.7V282.443Z" fill="#E6E6E6"/>
<path opacity="0.3" d="M1127.03 282.443H1148.1V286.409H1127.03V282.443Z" fill="#E6E6E6"/>
<path opacity="0.4" d="M1184.54 291.582H1205.61V295.548H1184.54V291.582Z" fill="#E6E6E6"/>
<path opacity="0.39" d="M1155.7 291.582H1176.77V295.548H1155.7V291.582Z" fill="#E6E6E6"/>
<path opacity="0.24" d="M1127.03 291.582H1148.1V295.548H1127.03V291.582Z" fill="#E6E6E6"/>
<path opacity="0.46" d="M1184.54 300.721H1205.61V304.688H1184.54V300.721Z" fill="#E6E6E6"/>
<path opacity="0.22" d="M1155.7 300.721H1176.77V304.688H1155.7V300.721Z" fill="#E6E6E6"/>
<path opacity="0.11" d="M1127.03 300.721H1148.1V304.688H1127.03V300.721Z" fill="#E6E6E6"/>
<path opacity="0.11" d="M1155.7 309.861H1176.77V313.828H1155.7V309.861Z" fill="#E6E6E6"/>
<path opacity="0.02" d="M1127.03 309.861H1148.1V313.828H1127.03V309.861Z" fill="#E6E6E6"/>
<path opacity="0.27" d="M1184.54 319.001H1205.61V322.967H1184.54V319.001Z" fill="#E6E6E6"/>
<path opacity="0.21" d="M1155.7 319.001H1176.77V322.967H1155.7V319.001Z" fill="#E6E6E6"/>
<path opacity="0.49" d="M1127.03 319.001H1148.1V322.967H1127.03V319.001Z" fill="#E6E6E6"/>
<path opacity="0.6" d="M1184.54 328.14H1205.61V332.107H1184.54V328.14Z" fill="#E6E6E6"/>
<path opacity="0.31" d="M1155.7 328.14H1176.77V332.107H1155.7V328.14Z" fill="#E6E6E6"/>
<path opacity="0.22" d="M1127.03 328.14H1148.1V332.107H1127.03V328.14Z" fill="#E6E6E6"/>
<path opacity="0.54" d="M1184.54 337.28H1205.61V341.246H1184.54V337.28Z" fill="#E6E6E6"/>
<path opacity="0.6" d="M1155.7 337.28H1176.77V341.246H1155.7V337.28Z" fill="#E6E6E6"/>
<path opacity="0.08" d="M1127.03 337.28H1148.1V341.246H1127.03V337.28Z" fill="#E6E6E6"/>
<path opacity="0.55" d="M1155.7 346.419H1176.77V350.386H1155.7V346.419Z" fill="#E6E6E6"/>
<path d="M1127.03 346.419H1148.1V350.386H1127.03V346.419Z" fill="#E6E6E6"/>
<path opacity="0.6" d="M1183.16 172.768H1184.54V350.386H1183.16V172.768Z" fill="#E6E6E6"/>
<path opacity="0.6" d="M1148.1 172.768H1149.48V350.386H1148.1V172.768Z" fill="#E6E6E6"/>
<path d="M1079.18 162.766H1122.71V384.012H1079.18V162.766Z" fill="#4D4D4D"/>
<path opacity="0.69" d="M1085.57 172.768H1118.39V176.734H1085.57V172.768Z" fill="#E6E6E6"/>
<path opacity="0.79" d="M1085.57 181.907H1118.39V185.874H1085.57V181.907Z" fill="#E6E6E6"/>
<path opacity="0.19" d="M1085.57 191.047H1118.39V195.013H1085.57V191.047Z" fill="#E6E6E6"/>
<path opacity="0.88" d="M1085.57 200.187H1118.39V204.153H1085.57V200.187Z" fill="#E6E6E6"/>
<path opacity="0.5" d="M1085.57 209.326H1118.39V213.292H1085.57V209.326Z" fill="#E6E6E6"/>
<path opacity="0.25" d="M1085.57 218.466H1118.39V222.432H1085.57V218.466Z" fill="#E6E6E6"/>
<path opacity="0.91" d="M1085.57 227.605H1118.39V231.572H1085.57V227.605Z" fill="#E6E6E6"/>
<path opacity="0.02" d="M1085.57 236.745H1118.39V240.711H1085.57V236.745Z" fill="#E6E6E6"/>
<path opacity="0.53" d="M1085.57 245.884H1118.39V249.851H1085.57V245.884Z" fill="#E6E6E6"/>
<path opacity="0.65" d="M1085.57 255.024H1118.39V258.99H1085.57V255.024Z" fill="#E6E6E6"/>
<path d="M1085.57 264.164H1118.39V268.13H1085.57V264.164Z" fill="#E6E6E6"/>
<path opacity="0.8" d="M1085.57 273.303H1118.39V277.269H1085.57V273.303Z" fill="#E6E6E6"/>
<path opacity="0.82" d="M1085.57 282.443H1118.39V286.409H1085.57V282.443Z" fill="#E6E6E6"/>
<path opacity="0.75" d="M1085.57 291.582H1118.39V295.548H1085.57V291.582Z" fill="#E6E6E6"/>
<path opacity="0.31" d="M1085.57 300.721H1118.39V304.688H1085.57V300.721Z" fill="#E6E6E6"/>
<path opacity="0.22" d="M1085.57 309.861H1118.39V313.828H1085.57V309.861Z" fill="#E6E6E6"/>
<path opacity="0.43" d="M1085.57 319.001H1118.39V322.967H1085.57V319.001Z" fill="#E6E6E6"/>
<path opacity="0.68" d="M1085.57 328.14H1118.39V332.107H1085.57V328.14Z" fill="#E6E6E6"/>
<path opacity="0.38" d="M1085.57 337.28H1118.39V341.246H1085.57V337.28Z" fill="#E6E6E6"/>
<path opacity="0.84" d="M1085.57 346.419H1118.39V350.386H1085.57V346.419Z" fill="#E6E6E6"/>
<path d="M1194.56 151.04V162.766H1138.08V151.04H1194.56ZM1181.95 158.972H1187.82V155.006H1181.95V158.972ZM1172.8 158.972H1178.5V155.006H1172.8V158.972ZM1163.47 158.972H1169.17V155.006H1163.47V158.972ZM1154.14 158.972H1160.02V155.006H1154.14V158.972ZM1144.82 158.972H1150.69V155.006H1144.82V158.972Z" fill="#333333"/>
<path d="M1127.72 155.006H1129.27V158.972H1127.72V155.006Z" fill="#333333"/>
<path d="M1138.08 151.04V162.766H1111.48V151.04H1138.08ZM1127.72 158.972H1133.42V155.006H1127.72V158.972ZM1115.45 158.972H1121.15V155.006H1115.45V158.972Z" fill="#4D4D4D"/>
<path d="M1115.63 155.006H1117.18V158.972H1115.63V155.006Z" fill="#333333"/>
<path d="M1111.14 399.014H1228.59L1111.14 312.447V399.014Z" fill="#333333"/>
<path d="M1286.28 115.861H1295.77V151.902H1286.28V115.861Z" fill="#4D4D4D"/>
<path d="M1295.6 115.861H1305.27V151.902H1295.6V115.861Z" fill="#333333"/>
<path d="M1276.43 115.861H1286.1V151.902H1276.43V115.861Z" fill="#666666"/>
<path d="M1248.45 176.562H1275.39V382.115H1248.45V176.562Z" fill="#666666"/>
<path d="M1307 176.562H1330.49V382.115H1307V176.562Z" fill="#333333"/>
<path d="M1275.39 176.562H1307.17V382.115H1275.39V176.562Z" fill="#4D4D4D"/>
<path opacity="0.6" d="M1323.76 182.597H1327.21V379.356H1323.76V182.597Z" fill="#E6E6E6"/>
<path opacity="0.6" d="M1317.02 182.597H1320.47V379.356H1317.02V182.597Z" fill="#E6E6E6"/>
<path opacity="0.6" d="M1310.28 182.597H1313.74V379.356H1310.28V182.597Z" fill="#E6E6E6"/>
<path d="M1270.04 182.597H1273.49V379.356H1270.04V182.597Z" fill="#E6E6E6"/>
<path d="M1263.3 182.597H1266.76V379.356H1263.3V182.597Z" fill="#E6E6E6"/>
<path d="M1250.18 182.597H1253.63V379.356H1250.18V182.597Z" fill="#E6E6E6"/>
<path d="M1256.57 182.597H1260.02V379.356H1256.57V182.597Z" fill="#E6E6E6"/>
<path opacity="0.8" d="M1303.2 379.356H1279.37V182.597H1303.2V379.356ZM1299.4 186.046H1283.17V375.907H1299.4V186.046Z" fill="#E6E6E6"/>
<path opacity="0.8" d="M1296.29 372.631H1286.1V189.15H1296.29V372.631ZM1292.84 193.461H1291.63H1290.94H1289.56V368.32H1290.94H1291.63H1292.84V193.461Z" fill="#E6E6E6"/>
<path opacity="0.8" d="M1290.94 193.461H1291.63V368.32H1290.94V193.461Z" fill="#E6E6E6"/>
<path d="M1279.02 140.521H1302.86V176.562H1279.02V140.521Z" fill="#4D4D4D"/>
<path d="M1279.02 140.521H1302.86V176.562H1279.02V140.521Z" fill="#4D4D4D"/>
<path d="M1255.19 140.521H1279.02V176.562H1255.19V140.521Z" fill="#666666"/>
<path d="M1302.86 140.521H1326.69V176.562H1302.86V140.521Z" fill="#333333"/>
<path d="M1276.6 115.861H1305.27L1295.77 122.414H1286.1L1276.6 115.861Z" fill="#808080"/>
<path d="M764.141 102.583H777.959V143.107H764.141V102.583Z" fill="#4D4D4D"/>
<path d="M778.132 102.583H791.95V143.107H778.132V102.583Z" fill="#333333"/>
<path d="M750.324 102.583H764.142V143.107H750.324V102.583Z" fill="#666666"/>
<path d="M709.562 171.043H748.597V402.636H709.562V171.043Z" fill="#666666"/>
<path d="M794.541 171.043H828.394V402.636H794.541V171.043Z" fill="#333333"/>
<path d="M748.597 171.043H794.541V402.636H748.597V171.043Z" fill="#4D4D4D"/>
<path opacity="0.4" d="M818.721 177.941H823.73V399.532H818.721V177.941Z" fill="#E6E6E6"/>
<path opacity="0.4" d="M808.876 177.941H813.885V399.532H808.876V177.941Z" fill="#E6E6E6"/>
<path opacity="0.4" d="M799.031 177.941H804.04V399.532H799.031V177.941Z" fill="#E6E6E6"/>
<path d="M740.824 177.941H745.833V399.532H740.824V177.941Z" fill="#E6E6E6"/>
<path d="M730.979 177.941H735.988V399.532H730.979V177.941Z" fill="#E6E6E6"/>
<path d="M712.153 177.941H717.162V399.532H712.153V177.941Z" fill="#E6E6E6"/>
<path d="M721.307 177.941H726.316V399.532H721.307V177.941Z" fill="#E6E6E6"/>
<path d="M788.668 399.532H754.124V177.941H788.668V399.532ZM783.314 181.735H759.824V395.738H783.314V181.735Z" fill="#E6E6E6"/>
<path d="M778.996 392.117H764.142V185.356H778.996V392.117ZM773.814 190.185H771.914H771.05H769.151V387.289H771.05H771.914H773.814V190.185Z" fill="#E6E6E6"/>
<path d="M771.051 190.184H771.914V387.288H771.051V190.184Z" fill="#E6E6E6"/>
<path d="M753.778 130.519H788.323V171.043H753.778V130.519Z" fill="#4D4D4D"/>
<path d="M753.778 130.519H788.323V171.043H753.778V130.519Z" fill="#4D4D4D"/>
<path d="M719.234 130.519H753.778V171.043H719.234V130.519Z" fill="#666666"/>
<path d="M788.15 130.519H822.694V171.043H788.15V130.519Z" fill="#333333"/>
<path d="M750.151 102.583H791.95L777.959 109.998H764.142L750.151 102.583Z" fill="#808080"/>
<path d="M863.801 203.117H958.279V234.502H863.801V203.117Z" fill="#E6E6E6"/>
<path d="M921.144 203.117H958.279V234.502H921.144V203.117Z" fill="#B3B3B3"/>
<path d="M921.144 234.675H994.551V387.115H921.144V234.675Z" fill="#333333"/>
<path d="M806.458 234.675H921.145V387.115H806.458V234.675Z" fill="#4D4D4D"/>
<path d="M930.126 219.155H986.605V234.674H930.126V219.155Z" fill="#333333"/>
<path d="M823.557 219.155H904.218V234.674H823.557V219.155Z" fill="#4D4D4D"/>
<path d="M888.846 191.219H921.145V203.117H888.846V191.219Z" fill="#E6E6E6"/>
<path d="M905.082 179.147H921.145V191.046H905.082V179.147Z" fill="#4D4D4D"/>
<path d="M921.317 179.147H937.38V191.046H921.317V179.147Z" fill="#333333"/>
<path d="M921.144 191.219H945.844V203.117H921.144V191.219Z" fill="#B3B3B3"/>
<path d="M922.181 179.147L921.144 151.556L920.281 179.147H922.181Z" fill="#333333"/>
<path opacity="0.12" d="M971.406 240.882H977.451V246.918H971.406V240.882Z" fill="white"/>
<path opacity="0.25" d="M963.115 240.882H969.161V246.918H963.115V240.882Z" fill="white"/>
<path opacity="0.36" d="M954.825 240.882H960.87V246.918H954.825V240.882Z" fill="white"/>
<path opacity="0.12" d="M946.534 240.882H952.58V246.918H946.534V240.882Z" fill="white"/>
<path opacity="0.14" d="M938.244 240.882H944.289V246.918H938.244V240.882Z" fill="white"/>
<path opacity="0.28" d="M971.406 248.815H977.451V254.85H971.406V248.815Z" fill="white"/>
<path opacity="0.4" d="M963.115 248.815H969.161V254.85H963.115V248.815Z" fill="white"/>
<path opacity="0.16" d="M954.825 248.815H960.87V254.85H954.825V248.815Z" fill="white"/>
<path opacity="0.17" d="M938.244 248.815H944.289V254.85H938.244V248.815Z" fill="white"/>
<path opacity="0.27" d="M971.406 256.747H977.451V262.783H971.406V256.747Z" fill="white"/>
<path opacity="0.45" d="M963.115 256.747H969.161V262.783H963.115V256.747Z" fill="white"/>
<path opacity="0.45" d="M954.825 256.747H960.87V262.783H954.825V256.747Z" fill="white"/>
<path opacity="0.48" d="M946.534 256.747H952.58V262.783H946.534V256.747Z" fill="white"/>
<path opacity="0.25" d="M938.244 256.747H944.289V262.783H938.244V256.747Z" fill="white"/>
<path opacity="0.28" d="M971.406 264.68H977.451V270.715H971.406V264.68Z" fill="white"/>
<path opacity="0.13" d="M963.115 264.68H969.161V270.715H963.115V264.68Z" fill="white"/>
<path opacity="0.07" d="M954.825 264.68H960.87V270.715H954.825V264.68Z" fill="white"/>
<path opacity="0.39" d="M946.534 264.68H952.58V270.715H946.534V264.68Z" fill="white"/>
<path opacity="0.47" d="M938.244 264.68H944.289V270.715H938.244V264.68Z" fill="white"/>
<path opacity="0.28" d="M971.406 272.612H977.451V278.648H971.406V272.612Z" fill="white"/>
<path opacity="0.2" d="M963.115 272.612H969.161V278.648H963.115V272.612Z" fill="white"/>
<path opacity="0.04" d="M954.825 272.612H960.87V278.648H954.825V272.612Z" fill="white"/>
<path opacity="0.43" d="M946.534 272.612H952.58V278.648H946.534V272.612Z" fill="white"/>
<path opacity="0.48" d="M938.244 272.612H944.289V278.648H938.244V272.612Z" fill="white"/>
<path opacity="0.28" d="M971.406 280.545H977.451V286.58H971.406V280.545Z" fill="white"/>
<path opacity="0.19" d="M963.115 280.545H969.161V286.58H963.115V280.545Z" fill="white"/>
<path opacity="0.01" d="M954.825 280.545H960.87V286.58H954.825V280.545Z" fill="white"/>
<path opacity="0.27" d="M946.534 280.545H952.58V286.58H946.534V280.545Z" fill="white"/>
<path opacity="0.24" d="M938.244 280.545H944.289V286.58H938.244V280.545Z" fill="white"/>
<path opacity="0.07" d="M971.406 288.649H977.451V294.685H971.406V288.649Z" fill="white"/>
<path opacity="0.25" d="M963.115 288.649H969.161V294.685H963.115V288.649Z" fill="white"/>
<path opacity="0.26" d="M954.825 288.649H960.87V294.685H954.825V288.649Z" fill="white"/>
<path opacity="0.39" d="M946.534 288.649H952.58V294.685H946.534V288.649Z" fill="white"/>
<path opacity="0.22" d="M938.244 288.649H944.289V294.685H938.244V288.649Z" fill="white"/>
<path opacity="0.15" d="M971.406 296.582H977.451V302.617H971.406V296.582Z" fill="white"/>
<path opacity="0.23" d="M963.115 296.582H969.161V302.617H963.115V296.582Z" fill="white"/>
<path opacity="0.05" d="M954.825 296.582H960.87V302.617H954.825V296.582Z" fill="white"/>
<path opacity="0.2" d="M946.534 296.582H952.58V302.617H946.534V296.582Z" fill="white"/>
<path opacity="0.31" d="M938.244 296.582H944.289V302.617H938.244V296.582Z" fill="white"/>
<path opacity="0.15" d="M971.406 304.514H977.451V310.55H971.406V304.514Z" fill="white"/>
<path opacity="0.33" d="M963.115 304.514H969.161V310.55H963.115V304.514Z" fill="white"/>
<path opacity="0.46" d="M954.825 304.514H960.87V310.55H954.825V304.514Z" fill="white"/>
<path opacity="0.25" d="M946.534 304.514H952.58V310.55H946.534V304.514Z" fill="white"/>
<path opacity="0.43" d="M938.244 304.514H944.289V310.55H938.244V304.514Z" fill="white"/>
<path opacity="0.4" d="M971.406 312.447H977.451V318.482H971.406V312.447Z" fill="white"/>
<path opacity="0.39" d="M963.115 312.447H969.161V318.482H963.115V312.447Z" fill="white"/>
<path opacity="0.01" d="M954.825 312.447H960.87V318.482H954.825V312.447Z" fill="white"/>
<path opacity="0.12" d="M946.534 312.447H952.58V318.482H946.534V312.447Z" fill="white"/>
<path opacity="0.07" d="M938.244 312.447H944.289V318.482H938.244V312.447Z" fill="white"/>
<path opacity="0.07" d="M971.406 320.38H977.451V326.415H971.406V320.38Z" fill="white"/>
<path opacity="0.02" d="M963.115 320.38H969.161V326.415H963.115V320.38Z" fill="white"/>
<path opacity="0.12" d="M954.825 320.38H960.87V326.415H954.825V320.38Z" fill="white"/>
<path opacity="0.23" d="M946.534 320.38H952.58V326.415H946.534V320.38Z" fill="white"/>
<path opacity="0.26" d="M938.244 320.38H944.289V326.415H938.244V320.38Z" fill="white"/>
<path opacity="0.27" d="M971.406 328.312H977.451V334.347H971.406V328.312Z" fill="white"/>
<path opacity="0.38" d="M963.115 328.312H969.161V334.347H963.115V328.312Z" fill="white"/>
<path opacity="0.05" d="M954.825 328.312H960.87V334.347H954.825V328.312Z" fill="white"/>
<path opacity="0.45" d="M946.534 328.312H952.58V334.347H946.534V328.312Z" fill="white"/>
<path opacity="0.15" d="M938.244 328.312H944.289V334.347H938.244V328.312Z" fill="white"/>
<path opacity="0.06" d="M971.406 336.244H977.451V342.28H971.406V336.244Z" fill="white"/>
<path opacity="0.47" d="M963.115 336.244H969.161V342.28H963.115V336.244Z" fill="white"/>
<path opacity="0.15" d="M954.825 336.244H960.87V342.28H954.825V336.244Z" fill="white"/>
<path opacity="0.44" d="M946.534 336.244H952.58V342.28H946.534V336.244Z" fill="white"/>
<path opacity="0.14" d="M938.244 336.244H944.289V342.28H938.244V336.244Z" fill="white"/>
<path opacity="0.15" d="M971.406 344.177H977.451V350.212H971.406V344.177Z" fill="white"/>
<path opacity="0.43" d="M963.115 344.177H969.161V350.212H963.115V344.177Z" fill="white"/>
<path opacity="0.07" d="M954.825 344.177H960.87V350.212H954.825V344.177Z" fill="white"/>
<path opacity="0.47" d="M946.534 344.177H952.58V350.212H946.534V344.177Z" fill="white"/>
<path opacity="0.11" d="M938.244 344.177H944.289V350.212H938.244V344.177Z" fill="white"/>
<path opacity="0.3" d="M901.109 240.882H907.154V246.918H901.109V240.882Z" fill="white"/>
<path opacity="0.72" d="M893.164 240.882H899.209V246.918H893.164V240.882Z" fill="white"/>
<path opacity="0.7" d="M885.046 240.882H891.091V246.918H885.046V240.882Z" fill="white"/>
<path opacity="0.52" d="M876.928 240.882H882.974V246.918H876.928V240.882Z" fill="white"/>
<path opacity="0.2" d="M868.81 240.882H874.856V246.918H868.81V240.882Z" fill="white"/>
<path opacity="0.32" d="M860.865 240.882H866.91V246.918H860.865V240.882Z" fill="white"/>
<path opacity="0.13" d="M852.747 240.882H858.792V246.918H852.747V240.882Z" fill="white"/>
<path opacity="0.38" d="M844.63 240.882H850.675V246.918H844.63V240.882Z" fill="white"/>
<path opacity="0.61" d="M836.684 240.882H842.729V246.918H836.684V240.882Z" fill="white"/>
<path d="M828.566 240.882H834.612V246.918H828.566V240.882Z" fill="white"/>
<path opacity="0.91" d="M820.449 240.882H826.494V246.918H820.449V240.882Z" fill="white"/>
<path opacity="0.66" d="M901.109 248.815H907.154V254.85H901.109V248.815Z" fill="white"/>
<path opacity="0.31" d="M893.164 248.815H899.209V254.85H893.164V248.815Z" fill="white"/>
<path opacity="0.95" d="M885.046 248.815H891.091V254.85H885.046V248.815Z" fill="white"/>
<path opacity="0.7" d="M876.928 248.815H882.974V254.85H876.928V248.815Z" fill="white"/>
<path opacity="0.12" d="M868.81 248.815H874.856V254.85H868.81V248.815Z" fill="white"/>
<path opacity="0.24" d="M860.865 248.815H866.91V254.85H860.865V248.815Z" fill="white"/>
<path opacity="0.66" d="M852.747 248.815H858.792V254.85H852.747V248.815Z" fill="white"/>
<path opacity="0.71" d="M844.63 248.815H850.675V254.85H844.63V248.815Z" fill="white"/>
<path opacity="0.42" d="M836.684 248.815H842.729V254.85H836.684V248.815Z" fill="white"/>
<path opacity="0.09" d="M828.566 248.815H834.612V254.85H828.566V248.815Z" fill="white"/>
<path opacity="0.32" d="M820.449 248.815H826.494V254.85H820.449V248.815Z" fill="white"/>
<path opacity="0.65" d="M901.109 256.747H907.154V262.783H901.109V256.747Z" fill="white"/>
<path d="M893.164 256.747H899.209V262.783H893.164V256.747Z" fill="white"/>
<path d="M885.046 256.747H891.091V262.783H885.046V256.747Z" fill="white"/>
<path opacity="0.71" d="M876.928 256.747H882.974V262.783H876.928V256.747Z" fill="white"/>
<path opacity="0.2" d="M868.81 256.747H874.856V262.783H868.81V256.747Z" fill="white"/>
<path opacity="0.19" d="M860.865 256.747H866.91V262.783H860.865V256.747Z" fill="white"/>
<path opacity="0.62" d="M852.747 256.747H858.792V262.783H852.747V256.747Z" fill="white"/>
<path opacity="0.93" d="M844.63 256.747H850.675V262.783H844.63V256.747Z" fill="white"/>
<path opacity="0.56" d="M836.684 256.747H842.729V262.783H836.684V256.747Z" fill="white"/>
<path opacity="0.57" d="M828.566 256.747H834.612V262.783H828.566V256.747Z" fill="white"/>
<path opacity="0.52" d="M820.449 256.747H826.494V262.783H820.449V256.747Z" fill="white"/>
<path opacity="0.74" d="M901.109 264.68H907.154V270.715H901.109V264.68Z" fill="white"/>
<path opacity="0.56" d="M893.164 264.68H899.209V270.715H893.164V264.68Z" fill="white"/>
<path opacity="0.78" d="M885.046 264.68H891.091V270.715H885.046V264.68Z" fill="white"/>
<path opacity="0.41" d="M876.928 264.68H882.974V270.715H876.928V264.68Z" fill="white"/>
<path opacity="0.14" d="M868.81 264.68H874.856V270.715H868.81V264.68Z" fill="white"/>
<path opacity="0.28" d="M860.865 264.68H866.91V270.715H860.865V264.68Z" fill="white"/>
<path opacity="0.36" d="M852.747 264.68H858.792V270.715H852.747V264.68Z" fill="white"/>
<path opacity="0.14" d="M844.63 264.68H850.675V270.715H844.63V264.68Z" fill="white"/>
<path opacity="0.5" d="M836.684 264.68H842.729V270.715H836.684V264.68Z" fill="white"/>
<path opacity="0.98" d="M828.566 264.68H834.612V270.715H828.566V264.68Z" fill="white"/>
<path opacity="0.59" d="M820.449 264.68H826.494V270.715H820.449V264.68Z" fill="white"/>
<path opacity="0.07" d="M901.109 272.612H907.154V278.648H901.109V272.612Z" fill="white"/>
<path opacity="0.1" d="M893.164 272.612H899.209V278.648H893.164V272.612Z" fill="white"/>
<path opacity="0.88" d="M885.046 272.612H891.091V278.648H885.046V272.612Z" fill="white"/>
<path opacity="0.68" d="M876.928 272.612H882.974V278.648H876.928V272.612Z" fill="white"/>
<path opacity="0.81" d="M868.81 272.612H874.856V278.648H868.81V272.612Z" fill="white"/>
<path opacity="0.62" d="M860.865 272.612H866.91V278.648H860.865V272.612Z" fill="white"/>
<path opacity="0.97" d="M852.747 272.612H858.792V278.648H852.747V272.612Z" fill="white"/>
<path opacity="0.81" d="M844.63 272.612H850.675V278.648H844.63V272.612Z" fill="white"/>
<path opacity="0.79" d="M836.684 272.612H842.729V278.648H836.684V272.612Z" fill="white"/>
<path opacity="0.03" d="M828.566 272.612H834.612V278.648H828.566V272.612Z" fill="white"/>
<path opacity="0.95" d="M820.449 272.612H826.494V278.648H820.449V272.612Z" fill="white"/>
<path opacity="0.62" d="M901.109 280.545H907.154V286.58H901.109V280.545Z" fill="white"/>
<path opacity="0.22" d="M893.164 280.545H899.209V286.58H893.164V280.545Z" fill="white"/>
<path opacity="0.42" d="M885.046 280.545H891.091V286.58H885.046V280.545Z" fill="white"/>
<path opacity="0.56" d="M876.928 280.545H882.974V286.58H876.928V280.545Z" fill="white"/>
<path opacity="0.03" d="M868.81 280.545H874.856V286.58H868.81V280.545Z" fill="white"/>
<path opacity="0.64" d="M860.865 280.545H866.91V286.58H860.865V280.545Z" fill="white"/>
<path opacity="0.82" d="M852.747 280.545H858.792V286.58H852.747V280.545Z" fill="white"/>
<path opacity="0.52" d="M844.63 280.545H850.675V286.58H844.63V280.545Z" fill="white"/>
<path opacity="0.46" d="M836.684 280.545H842.729V286.58H836.684V280.545Z" fill="white"/>
<path opacity="0.27" d="M828.566 280.545H834.612V286.58H828.566V280.545Z" fill="white"/>
<path opacity="0.46" d="M820.449 280.545H826.494V286.58H820.449V280.545Z" fill="white"/>
<path opacity="0.66" d="M901.109 288.649H907.154V294.685H901.109V288.649Z" fill="white"/>
<path opacity="0.7" d="M893.164 288.649H899.209V294.685H893.164V288.649Z" fill="white"/>
<path opacity="0.94" d="M885.046 288.649H891.091V294.685H885.046V288.649Z" fill="white"/>
<path opacity="0.5" d="M876.928 288.649H882.974V294.685H876.928V288.649Z" fill="white"/>
<path opacity="0.12" d="M868.81 288.649H874.856V294.685H868.81V288.649Z" fill="white"/>
<path opacity="0.36" d="M860.865 288.649H866.91V294.685H860.865V288.649Z" fill="white"/>
<path opacity="0.51" d="M852.747 288.649H858.792V294.685H852.747V288.649Z" fill="white"/>
<path opacity="0.37" d="M844.63 288.649H850.675V294.685H844.63V288.649Z" fill="white"/>
<path opacity="0.66" d="M836.684 288.649H842.729V294.685H836.684V288.649Z" fill="white"/>
<path opacity="0.42" d="M828.566 288.649H834.612V294.685H828.566V288.649Z" fill="white"/>
<path opacity="0.5" d="M820.449 288.649H826.494V294.685H820.449V288.649Z" fill="white"/>
<path opacity="0.52" d="M901.109 296.582H907.154V302.617H901.109V296.582Z" fill="white"/>
<path opacity="0.61" d="M893.164 296.582H899.209V302.617H893.164V296.582Z" fill="white"/>
<path opacity="0.84" d="M885.046 296.582H891.091V302.617H885.046V296.582Z" fill="white"/>
<path opacity="0.89" d="M876.928 296.582H882.974V302.617H876.928V296.582Z" fill="white"/>
<path opacity="0.33" d="M868.81 296.582H874.856V302.617H868.81V296.582Z" fill="white"/>
<path opacity="0.25" d="M860.865 296.582H866.91V302.617H860.865V296.582Z" fill="white"/>
<path opacity="0.95" d="M852.747 296.582H858.792V302.617H852.747V296.582Z" fill="white"/>
<path opacity="0.09" d="M844.63 296.582H850.675V302.617H844.63V296.582Z" fill="white"/>
<path opacity="0.44" d="M836.684 296.582H842.729V302.617H836.684V296.582Z" fill="white"/>
<path opacity="0.51" d="M828.566 296.582H834.612V302.617H828.566V296.582Z" fill="white"/>
<path opacity="0.97" d="M820.449 296.582H826.494V302.617H820.449V296.582Z" fill="white"/>
<path opacity="0.26" d="M901.109 304.514H907.154V310.55H901.109V304.514Z" fill="white"/>
<path opacity="0.92" d="M893.164 304.514H899.209V310.55H893.164V304.514Z" fill="white"/>
<path opacity="0.33" d="M885.046 304.514H891.091V310.55H885.046V304.514Z" fill="white"/>
<path opacity="0.23" d="M876.928 304.514H882.974V310.55H876.928V304.514Z" fill="white"/>
<path opacity="0.42" d="M868.81 304.514H874.856V310.55H868.81V304.514Z" fill="white"/>
<path opacity="0.57" d="M860.865 304.514H866.91V310.55H860.865V304.514Z" fill="white"/>
<path opacity="0.73" d="M852.747 304.514H858.792V310.55H852.747V304.514Z" fill="white"/>
<path opacity="0.87" d="M844.63 304.514H850.675V310.55H844.63V304.514Z" fill="white"/>
<path opacity="0.22" d="M836.684 304.514H842.729V310.55H836.684V304.514Z" fill="white"/>
<path opacity="0.89" d="M828.566 304.514H834.612V310.55H828.566V304.514Z" fill="white"/>
<path opacity="0.73" d="M820.449 304.514H826.494V310.55H820.449V304.514Z" fill="white"/>
<path opacity="0.35" d="M901.109 312.447H907.154V318.482H901.109V312.447Z" fill="white"/>
<path opacity="0.81" d="M893.164 312.447H899.209V318.482H893.164V312.447Z" fill="white"/>
<path opacity="0.56" d="M885.046 312.447H891.091V318.482H885.046V312.447Z" fill="white"/>
<path opacity="0.81" d="M876.928 312.447H882.974V318.482H876.928V312.447Z" fill="white"/>
<path opacity="0.87" d="M868.81 312.447H874.856V318.482H868.81V312.447Z" fill="white"/>
<path opacity="0.39" d="M860.865 312.447H866.91V318.482H860.865V312.447Z" fill="white"/>
<path opacity="0.31" d="M852.747 312.447H858.792V318.482H852.747V312.447Z" fill="white"/>
<path opacity="0.98" d="M844.63 312.447H850.675V318.482H844.63V312.447Z" fill="white"/>
<path opacity="0.17" d="M836.684 312.447H842.729V318.482H836.684V312.447Z" fill="white"/>
<path opacity="0.06" d="M828.566 312.447H834.612V318.482H828.566V312.447Z" fill="white"/>
<path opacity="0.57" d="M820.449 312.447H826.494V318.482H820.449V312.447Z" fill="white"/>
<path opacity="0.67" d="M901.109 320.38H907.154V326.415H901.109V320.38Z" fill="white"/>
<path opacity="0.83" d="M893.164 320.38H899.209V326.415H893.164V320.38Z" fill="white"/>
<path opacity="0.99" d="M885.046 320.38H891.091V326.415H885.046V320.38Z" fill="white"/>
<path opacity="0.62" d="M876.928 320.38H882.974V326.415H876.928V320.38Z" fill="white"/>
<path opacity="0.87" d="M868.81 320.38H874.856V326.415H868.81V320.38Z" fill="white"/>
<path opacity="0.14" d="M860.865 320.38H866.91V326.415H860.865V320.38Z" fill="white"/>
<path opacity="0.12" d="M852.747 320.38H858.792V326.415H852.747V320.38Z" fill="white"/>
<path opacity="0.11" d="M844.63 320.38H850.675V326.415H844.63V320.38Z" fill="white"/>
<path opacity="0.39" d="M836.684 320.38H842.729V326.415H836.684V320.38Z" fill="white"/>
<path opacity="0.58" d="M828.566 320.38H834.612V326.415H828.566V320.38Z" fill="white"/>
<path opacity="0.54" d="M820.449 320.38H826.494V326.415H820.449V320.38Z" fill="white"/>
<path opacity="0.99" d="M901.109 328.312H907.154V334.347H901.109V328.312Z" fill="white"/>
<path opacity="0.28" d="M893.164 328.312H899.209V334.347H893.164V328.312Z" fill="white"/>
<path opacity="0.78" d="M885.046 328.312H891.091V334.347H885.046V328.312Z" fill="white"/>
<path opacity="0.65" d="M876.928 328.312H882.974V334.347H876.928V328.312Z" fill="white"/>
<path opacity="0.32" d="M868.81 328.312H874.856V334.347H868.81V328.312Z" fill="white"/>
<path opacity="0.55" d="M860.865 328.312H866.91V334.347H860.865V328.312Z" fill="white"/>
<path opacity="0.4" d="M852.747 328.312H858.792V334.347H852.747V328.312Z" fill="white"/>
<path opacity="0.22" d="M844.63 328.312H850.675V334.347H844.63V328.312Z" fill="white"/>
<path opacity="0.87" d="M836.684 328.312H842.729V334.347H836.684V328.312Z" fill="white"/>
<path opacity="0.02" d="M828.566 328.312H834.612V334.347H828.566V328.312Z" fill="white"/>
<path opacity="0.39" d="M820.449 328.312H826.494V334.347H820.449V328.312Z" fill="white"/>
<path opacity="0.89" d="M901.109 336.244H907.154V342.28H901.109V336.244Z" fill="white"/>
<path opacity="0.97" d="M893.164 336.244H899.209V342.28H893.164V336.244Z" fill="white"/>
<path opacity="0.79" d="M885.046 336.244H891.091V342.28H885.046V336.244Z" fill="white"/>
<path opacity="0.41" d="M876.928 336.244H882.974V342.28H876.928V336.244Z" fill="white"/>
<path opacity="0.13" d="M868.81 336.244H874.856V342.28H868.81V336.244Z" fill="white"/>
<path opacity="0.9" d="M860.865 336.244H866.91V342.28H860.865V336.244Z" fill="white"/>
<path opacity="0.98" d="M852.747 336.244H858.792V342.28H852.747V336.244Z" fill="white"/>
<path opacity="0.67" d="M844.63 336.244H850.675V342.28H844.63V336.244Z" fill="white"/>
<path opacity="0.65" d="M836.684 336.244H842.729V342.28H836.684V336.244Z" fill="white"/>
<path opacity="0.89" d="M828.566 336.244H834.612V342.28H828.566V336.244Z" fill="white"/>
<path opacity="0.98" d="M820.449 336.244H826.494V342.28H820.449V336.244Z" fill="white"/>
<path opacity="0.29" d="M901.109 344.177H907.154V350.212H901.109V344.177Z" fill="white"/>
<path opacity="0.74" d="M893.164 344.177H899.209V350.212H893.164V344.177Z" fill="white"/>
<path opacity="0.64" d="M885.046 344.177H891.091V350.212H885.046V344.177Z" fill="white"/>
<path opacity="0.65" d="M876.928 344.177H882.974V350.212H876.928V344.177Z" fill="white"/>
<path opacity="0.07" d="M868.81 344.177H874.856V350.212H868.81V344.177Z" fill="white"/>
<path opacity="0.16" d="M860.865 344.177H866.91V350.212H860.865V344.177Z" fill="white"/>
<path opacity="0.84" d="M852.747 344.177H858.792V350.212H852.747V344.177Z" fill="white"/>
<path opacity="0.88" d="M844.63 344.177H850.675V350.212H844.63V344.177Z" fill="white"/>
<path opacity="0.57" d="M836.684 344.177H842.729V350.212H836.684V344.177Z" fill="white"/>
<path opacity="0.31" d="M828.566 344.177H834.612V350.212H828.566V344.177Z" fill="white"/>
<path opacity="0.03" d="M820.449 344.177H826.494V350.212H820.449V344.177Z" fill="white"/>
<path d="M1003.19 202.083H1060.18V380.391H1003.19V202.083Z" fill="#333333"/>
<path d="M1034.28 193.116H1060.18V203.117H1034.28V193.116Z" fill="#333333"/>
<path d="M1045.16 187.253H1060.18V193.116H1045.16V187.253Z" fill="#333333"/>
<path opacity="0.25" d="M1027.19 214.671H1036.52V223.983H1027.19V214.671Z" fill="white"/>
<path opacity="0.15" d="M1027.19 237.606H1036.52V246.918H1027.19V237.606Z" fill="white"/>
<path opacity="0.19" d="M1027.19 283.304H1036.52V292.616H1027.19V283.304Z" fill="white"/>
<path opacity="0.17" d="M1027.19 306.067H1036.52V315.379H1027.19V306.067Z" fill="white"/>
<path opacity="0.22" d="M1027.19 328.829H1036.52V338.141H1027.19V328.829Z" fill="white"/>
<path d="M1027.19 351.765H1036.52V361.077H1027.19V351.765Z" fill="white"/>
<path d="M1045.5 301.411H1098.87V317.103H1045.5V301.411Z" fill="#333333"/>
<path d="M1018.9 301.411H1045.5V317.103H1018.9V301.411Z" fill="#4D4D4D"/>
<path d="M1098.87 301.411L1082.29 293.478L1045.5 301.411H1098.87Z" fill="#333333"/>
<path d="M1082.29 293.478L1045.5 301.411H1018.9L1082.29 293.478Z" fill="#4D4D4D"/>
<path d="M1033.07 312.447H1111.14V383.839H1033.07V312.447Z" fill="#333333"/>
<path d="M1007.16 312.447H1033.07V383.839H1007.16V312.447Z" fill="#4D4D4D"/>
<path opacity="0.81" d="M1013.2 317.448H1027.19V322.621H1013.2V317.448Z" fill="white"/>
<path opacity="0.76" d="M1013.2 326.932H1027.19V332.106H1013.2V326.932Z" fill="white"/>
<path opacity="0.32" d="M1013.2 336.417H1027.19V341.59H1013.2V336.417Z" fill="white"/>
<path opacity="0.49" d="M1013.2 346.074H1027.19V351.247H1013.2V346.074Z" fill="white"/>
<path opacity="0.1" d="M1084.71 317.448H1098.7V322.621H1084.71V317.448Z" fill="white"/>
<path opacity="0.04" d="M1065.19 317.448H1079.18V322.621H1065.19V317.448Z" fill="white"/>
<path opacity="0.07" d="M1045.5 317.448H1059.49V322.621H1045.5V317.448Z" fill="white"/>
<path opacity="0.06" d="M1084.71 326.933H1098.7V332.106H1084.71V326.933Z" fill="white"/>
<path opacity="0.44" d="M1065.19 326.933H1079.18V332.106H1065.19V326.933Z" fill="white"/>
<path opacity="0.24" d="M1045.5 326.933H1059.49V332.106H1045.5V326.933Z" fill="white"/>
<path opacity="0.55" d="M1084.71 336.417H1098.7V341.59H1084.71V336.417Z" fill="white"/>
<path opacity="0.02" d="M1065.19 336.417H1079.18V341.59H1065.19V336.417Z" fill="white"/>
<path opacity="0.14" d="M1045.5 336.417H1059.49V341.59H1045.5V336.417Z" fill="white"/>
<path opacity="0.43" d="M1084.71 346.074H1098.7V351.247H1084.71V346.074Z" fill="white"/>
<path opacity="0.41" d="M1065.19 346.074H1079.18V351.247H1065.19V346.074Z" fill="white"/>
<path opacity="0.46" d="M1045.5 346.074H1059.49V351.247H1045.5V346.074Z" fill="white"/>
<path d="M1412.88 241.055H1461.24V389.875H1412.88V241.055Z" fill="#333333"/>
<path d="M1357.78 241.055H1412.71V389.875H1357.78V241.055Z" fill="#4D4D4D"/>
<path d="M1412.88 253.644H1461.24V256.231H1412.88V253.644Z" fill="#4D4D4D"/>
<path d="M1357.78 253.644H1412.71V256.231H1357.78V253.644Z" fill="#333333"/>
<path opacity="0.25" d="M1430.84 259.162H1436.02V264.336H1430.84V259.162Z" fill="white"/>
<path opacity="0.12" d="M1416.68 259.162H1421.86V264.336H1416.68V259.162Z" fill="white"/>
<path opacity="0.47" d="M1430.84 266.232H1436.02V271.406H1430.84V266.232Z" fill="white"/>
<path opacity="0.22" d="M1423.76 266.232H1428.94V271.406H1423.76V266.232Z" fill="white"/>
<path opacity="0.32" d="M1416.68 266.232H1421.86V271.406H1416.68V266.232Z" fill="white"/>
<path opacity="0.28" d="M1430.84 273.303H1436.02V278.476H1430.84V273.303Z" fill="white"/>
<path opacity="0.2" d="M1416.68 273.303H1421.86V278.476H1416.68V273.303Z" fill="white"/>
<path opacity="0.05" d="M1430.84 280.373H1436.02V285.546H1430.84V280.373Z" fill="white"/>
<path opacity="0.08" d="M1423.76 280.373H1428.94V285.546H1423.76V280.373Z" fill="white"/>
<path opacity="0.08" d="M1430.84 287.443H1436.02V292.616H1430.84V287.443Z" fill="white"/>
<path opacity="0.02" d="M1423.76 287.443H1428.94V292.616H1423.76V287.443Z" fill="white"/>
<path opacity="0.2" d="M1430.84 294.513H1436.02V299.687H1430.84V294.513Z" fill="white"/>
<path opacity="0.23" d="M1423.76 294.513H1428.94V299.687H1423.76V294.513Z" fill="white"/>
<path opacity="0.24" d="M1423.76 301.584H1428.94V306.757H1423.76V301.584Z" fill="white"/>
<path opacity="0.02" d="M1430.84 308.654H1436.02V313.827H1430.84V308.654Z" fill="white"/>
<path opacity="0.04" d="M1423.76 308.654H1428.94V313.827H1423.76V308.654Z" fill="white"/>
<path opacity="0.3" d="M1416.68 308.654H1421.86V313.827H1416.68V308.654Z" fill="white"/>
<path opacity="0.4" d="M1416.68 315.552H1421.86V320.725H1416.68V315.552Z" fill="white"/>
<path opacity="0.19" d="M1423.76 322.622H1428.94V327.795H1423.76V322.622Z" fill="white"/>
<path opacity="0.43" d="M1416.68 322.622H1421.86V327.795H1416.68V322.622Z" fill="white"/>
<path opacity="0.42" d="M1430.84 329.692H1436.02V334.865H1430.84V329.692Z" fill="white"/>
<path opacity="0.31" d="M1416.68 329.692H1421.86V334.865H1416.68V329.692Z" fill="white"/>
<path opacity="0.31" d="M1430.84 336.762H1436.02V341.936H1430.84V336.762Z" fill="white"/>
<path opacity="0.33" d="M1416.68 336.762H1421.86V341.936H1416.68V336.762Z" fill="white"/>
<path opacity="0.17" d="M1430.84 343.832H1436.02V349.006H1430.84V343.832Z" fill="white"/>
<path opacity="0.01" d="M1423.76 343.832H1428.94V349.006H1423.76V343.832Z" fill="white"/>
<path opacity="0.48" d="M1416.68 343.832H1421.86V349.006H1416.68V343.832Z" fill="white"/>
<path opacity="0.02" d="M1430.84 350.902H1436.02V356.076H1430.84V350.902Z" fill="white"/>
<path opacity="0.17" d="M1423.76 350.902H1428.94V356.076H1423.76V350.902Z" fill="white"/>
<path opacity="0.42" d="M1416.68 350.902H1421.86V356.076H1416.68V350.902Z" fill="white"/>
<path opacity="0.08" d="M1423.76 259.162H1428.94V264.336H1423.76V259.162Z" fill="white"/>
<path opacity="0.08" d="M1423.76 273.303H1428.94V278.476H1423.76V273.303Z" fill="white"/>
<path opacity="0.01" d="M1416.68 280.373H1421.86V285.546H1416.68V280.373Z" fill="white"/>
<path opacity="0.12" d="M1416.68 287.443H1421.86V292.616H1416.68V287.443Z" fill="white"/>
<path opacity="0.13" d="M1430.84 301.584H1436.02V306.757H1430.84V301.584Z" fill="white"/>
<path opacity="0.07" d="M1416.68 301.584H1421.86V306.757H1416.68V301.584Z" fill="white"/>
<path opacity="0.02" d="M1430.84 315.552H1436.02V320.725H1430.84V315.552Z" fill="white"/>
<path opacity="0.14" d="M1423.76 315.552H1428.94V320.725H1423.76V315.552Z" fill="white"/>
<path opacity="0.02" d="M1423.76 329.692H1428.94V334.865H1423.76V329.692Z" fill="white"/>
<path opacity="0.06" d="M1423.76 336.762H1428.94V341.936H1423.76V336.762Z" fill="white"/>
<g opacity="0.7">
<path opacity="0.7" d="M1402.34 256.23H1407.7V383.322H1402.34V256.23Z" fill="#E6E6E6"/>
<path opacity="0.7" d="M1393.19 256.23H1398.54V383.322H1393.19V256.23Z" fill="#E6E6E6"/>
<path opacity="0.7" d="M1383.86 256.23H1389.22V383.322H1383.86V256.23Z" fill="#E6E6E6"/>
<path opacity="0.7" d="M1374.53 256.23H1379.89V383.322H1374.53V256.23Z" fill="#E6E6E6"/>
<path opacity="0.7" d="M1365.21 256.23H1370.56V383.322H1365.21V256.23Z" fill="#E6E6E6"/>
</g>
<path d="M1330.15 383.322H1437.58L1330.15 289.857V383.322Z" fill="#333333"/>
<path d="M1345.69 364.871H1370.04L1361.58 350.73H1354.15L1345.69 364.871Z" fill="#4D4D4D"/>
<path d="M255.69 251.92H198.692V385.219H255.69V251.92Z" fill="#333333"/>
<path d="M224.6 245.195H198.692V252.782H224.6V245.195Z" fill="#333333"/>
<path d="M213.719 240.884H198.692V245.195H213.719V240.884Z" fill="#333333"/>
<path opacity="0.06" d="M231.854 261.232H222.528V268.13H231.854V261.232Z" fill="white"/>
<path opacity="0.12" d="M231.854 278.304H222.528V285.202H231.854V278.304Z" fill="white"/>
<path opacity="0.19" d="M231.854 312.448H222.528V319.346H231.854V312.448Z" fill="white"/>
<path opacity="0.14" d="M231.854 346.592H222.528V353.49H231.854V346.592Z" fill="white"/>
<path d="M112.677 266.405H34.6079V337.797H112.677V266.405Z" fill="#333333"/>
<path d="M100.414 260.024H47.0438V290.719H100.414V260.024Z" fill="#333333"/>
<path d="M118.377 311.413H40.3077V382.805H118.377V311.413Z" fill="#333333"/>
<path d="M105.941 305.032H52.5708V335.727H105.941V305.032Z" fill="#333333"/>
<path d="M222.355 301.928H144.285V384.184H222.355V301.928Z" fill="#333333"/>
<path d="M210.092 294.685H156.721V330.209H210.092V294.685Z" fill="#333333"/>
<path d="M483.681 326.933H405.611V406.43H483.681V326.933Z" fill="#333333"/>
<path d="M471.418 319.863H418.047V354.18H471.418V319.863Z" fill="#333333"/>
<path d="M314.415 162.766H227.191V384.012H314.415V162.766Z" fill="#333333"/>
<path opacity="0.46" d="M252.581 172.768H231.509V176.734H252.581V172.768Z" fill="#E6E6E6"/>
<path opacity="0.34" d="M281.425 172.768H260.354V176.734H281.425V172.768Z" fill="#E6E6E6"/>
<path opacity="0.52" d="M310.097 172.768H289.025V176.734H310.097V172.768Z" fill="#E6E6E6"/>
<path opacity="0.54" d="M252.581 181.907H231.509V185.874H252.581V181.907Z" fill="#E6E6E6"/>
<path opacity="0.3" d="M281.425 181.907H260.354V185.874H281.425V181.907Z" fill="#E6E6E6"/>
<path opacity="0.06" d="M310.097 181.907H289.025V185.874H310.097V181.907Z" fill="#E6E6E6"/>
<path opacity="0.15" d="M252.581 191.047H231.509V195.013H252.581V191.047Z" fill="#E6E6E6"/>
<path opacity="0.42" d="M281.425 191.047H260.354V195.013H281.425V191.047Z" fill="#E6E6E6"/>
<path opacity="0.48" d="M310.097 191.047H289.025V195.013H310.097V191.047Z" fill="#E6E6E6"/>
<path opacity="0.18" d="M252.581 200.187H231.509V204.153H252.581V200.187Z" fill="#E6E6E6"/>
<path opacity="0.28" d="M310.097 200.187H289.025V204.153H310.097V200.187Z" fill="#E6E6E6"/>
<path opacity="0.29" d="M252.581 209.326H231.509V213.292H252.581V209.326Z" fill="#E6E6E6"/>
<path opacity="0.28" d="M281.425 209.326H260.354V213.292H281.425V209.326Z" fill="#E6E6E6"/>
<path opacity="0.56" d="M310.097 209.326H289.025V213.292H310.097V209.326Z" fill="#E6E6E6"/>
<path opacity="0.41" d="M252.581 218.466H231.509V222.432H252.581V218.466Z" fill="#E6E6E6"/>
<path opacity="0.16" d="M281.425 218.466H260.354V222.432H281.425V218.466Z" fill="#E6E6E6"/>
<path opacity="0.4" d="M310.097 218.466H289.025V222.432H310.097V218.466Z" fill="#E6E6E6"/>
<path opacity="0.1" d="M252.581 227.605H231.509V231.572H252.581V227.605Z" fill="#E6E6E6"/>
<path opacity="0.17" d="M281.425 227.605H260.354V231.572H281.425V227.605Z" fill="#E6E6E6"/>
<path opacity="0.08" d="M310.097 227.605H289.025V231.572H310.097V227.605Z" fill="#E6E6E6"/>
<path opacity="0.49" d="M252.581 236.745H231.509V240.711H252.581V236.745Z" fill="#E6E6E6"/>
<path opacity="0.58" d="M281.425 236.745H260.354V240.711H281.425V236.745Z" fill="#E6E6E6"/>
<path opacity="0.58" d="M310.097 236.745H289.025V240.711H310.097V236.745Z" fill="#E6E6E6"/>
<path opacity="0.26" d="M252.581 245.884H231.509V249.851H252.581V245.884Z" fill="#E6E6E6"/>
<path opacity="0.37" d="M281.425 245.884H260.354V249.851H281.425V245.884Z" fill="#E6E6E6"/>
<path opacity="0.34" d="M310.097 245.884H289.025V249.851H310.097V245.884Z" fill="#E6E6E6"/>
<path opacity="0.55" d="M252.581 255.024H231.509V258.99H252.581V255.024Z" fill="#E6E6E6"/>
<path opacity="0.12" d="M281.425 255.024H260.354V258.99H281.425V255.024Z" fill="#E6E6E6"/>
<path opacity="0.6" d="M310.097 255.024H289.025V258.99H310.097V255.024Z" fill="#E6E6E6"/>
<path opacity="0.02" d="M252.581 264.164H231.509V268.13H252.581V264.164Z" fill="#E6E6E6"/>
<path opacity="0.28" d="M281.425 264.164H260.354V268.13H281.425V264.164Z" fill="#E6E6E6"/>
<path opacity="0.21" d="M310.097 264.164H289.025V268.13H310.097V264.164Z" fill="#E6E6E6"/>
<path opacity="0.57" d="M252.581 273.303H231.509V277.269H252.581V273.303Z" fill="#E6E6E6"/>
<path opacity="0.38" d="M281.425 273.303H260.354V277.269H281.425V273.303Z" fill="#E6E6E6"/>
<path opacity="0.25" d="M310.097 273.303H289.025V277.269H310.097V273.303Z" fill="#E6E6E6"/>
<path opacity="0.15" d="M252.581 282.443H231.509V286.409H252.581V282.443Z" fill="#E6E6E6"/>
<path opacity="0.47" d="M281.425 282.443H260.354V286.409H281.425V282.443Z" fill="#E6E6E6"/>
<path opacity="0.3" d="M310.097 282.443H289.025V286.409H310.097V282.443Z" fill="#E6E6E6"/>
<path opacity="0.4" d="M252.581 291.582H231.509V295.548H252.581V291.582Z" fill="#E6E6E6"/>
<path opacity="0.39" d="M281.425 291.582H260.354V295.548H281.425V291.582Z" fill="#E6E6E6"/>
<path opacity="0.24" d="M310.097 291.582H289.025V295.548H310.097V291.582Z" fill="#E6E6E6"/>
<path opacity="0.46" d="M252.581 300.721H231.509V304.688H252.581V300.721Z" fill="#E6E6E6"/>
<path opacity="0.22" d="M281.425 300.721H260.354V304.688H281.425V300.721Z" fill="#E6E6E6"/>
<path opacity="0.11" d="M310.097 300.721H289.025V304.688H310.097V300.721Z" fill="#E6E6E6"/>
<path opacity="0.11" d="M281.425 309.861H260.354V313.828H281.425V309.861Z" fill="#E6E6E6"/>
<path opacity="0.02" d="M310.097 309.861H289.025V313.828H310.097V309.861Z" fill="#E6E6E6"/>
<path opacity="0.27" d="M252.581 319.001H231.509V322.967H252.581V319.001Z" fill="#E6E6E6"/>
<path opacity="0.21" d="M281.425 319.001H260.354V322.967H281.425V319.001Z" fill="#E6E6E6"/>
<path opacity="0.49" d="M310.097 319.001H289.025V322.967H310.097V319.001Z" fill="#E6E6E6"/>
<path opacity="0.6" d="M252.581 328.14H231.509V332.107H252.581V328.14Z" fill="#E6E6E6"/>
<path opacity="0.31" d="M281.425 328.14H260.354V332.107H281.425V328.14Z" fill="#E6E6E6"/>
<path opacity="0.22" d="M310.097 328.14H289.025V332.107H310.097V328.14Z" fill="#E6E6E6"/>
<path opacity="0.54" d="M252.581 337.28H231.509V341.246H252.581V337.28Z" fill="#E6E6E6"/>
<path opacity="0.6" d="M281.425 337.28H260.354V341.246H281.425V337.28Z" fill="#E6E6E6"/>
<path opacity="0.08" d="M310.097 337.28H289.025V341.246H310.097V337.28Z" fill="#E6E6E6"/>
<path opacity="0.55" d="M281.425 346.419H260.354V350.386H281.425V346.419Z" fill="#E6E6E6"/>
<path d="M310.097 346.419H289.025V350.386H310.097V346.419Z" fill="#E6E6E6"/>
<path opacity="0.6" d="M253.963 172.768H252.581V350.386H253.963V172.768Z" fill="#E6E6E6"/>
<path opacity="0.6" d="M289.025 172.768H287.643V350.386H289.025V172.768Z" fill="#E6E6E6"/>
<path d="M357.94 162.766H314.415V384.012H357.94V162.766Z" fill="#4D4D4D"/>
<path opacity="0.69" d="M351.55 172.768H318.733V176.734H351.55V172.768Z" fill="#E6E6E6"/>
<path opacity="0.79" d="M351.55 181.907H318.733V185.874H351.55V181.907Z" fill="#E6E6E6"/>
<path opacity="0.19" d="M351.55 191.047H318.733V195.013H351.55V191.047Z" fill="#E6E6E6"/>
<path opacity="0.88" d="M351.55 200.187H318.733V204.153H351.55V200.187Z" fill="#E6E6E6"/>
<path opacity="0.5" d="M351.55 209.326H318.733V213.292H351.55V209.326Z" fill="#E6E6E6"/>
<path opacity="0.25" d="M351.55 218.466H318.733V222.432H351.55V218.466Z" fill="#E6E6E6"/>
<path opacity="0.91" d="M351.55 227.605H318.733V231.572H351.55V227.605Z" fill="#E6E6E6"/>
<path opacity="0.02" d="M351.55 236.745H318.733V240.711H351.55V236.745Z" fill="#E6E6E6"/>
<path opacity="0.53" d="M351.55 245.884H318.733V249.851H351.55V245.884Z" fill="#E6E6E6"/>
<path opacity="0.65" d="M351.55 255.024H318.733V258.99H351.55V255.024Z" fill="#E6E6E6"/>
<path d="M351.55 264.164H318.733V268.13H351.55V264.164Z" fill="#E6E6E6"/>
<path opacity="0.8" d="M351.55 273.303H318.733V277.269H351.55V273.303Z" fill="#E6E6E6"/>
<path opacity="0.82" d="M351.55 282.443H318.733V286.409H351.55V282.443Z" fill="#E6E6E6"/>
<path opacity="0.75" d="M351.55 291.582H318.733V295.548H351.55V291.582Z" fill="#E6E6E6"/>
<path opacity="0.31" d="M351.55 300.721H318.733V304.688H351.55V300.721Z" fill="#E6E6E6"/>
<path opacity="0.22" d="M351.55 309.861H318.733V313.828H351.55V309.861Z" fill="#E6E6E6"/>
<path opacity="0.43" d="M351.55 319.001H318.733V322.967H351.55V319.001Z" fill="#E6E6E6"/>
<path opacity="0.68" d="M351.55 328.14H318.733V332.107H351.55V328.14Z" fill="#E6E6E6"/>
<path opacity="0.38" d="M351.55 337.28H318.733V341.246H351.55V337.28Z" fill="#E6E6E6"/>
<path opacity="0.84" d="M351.55 346.419H318.733V350.386H351.55V346.419Z" fill="#E6E6E6"/>
<path d="M242.563 151.04V162.766H299.043V151.04H242.563ZM255.172 158.972H249.299V155.006H255.172V158.972ZM264.326 158.972H258.626V155.006H264.326V158.972ZM273.653 158.972H267.953V155.006H273.653V158.972ZM282.98 158.972H277.107V155.006H282.98V158.972ZM292.307 158.972H286.434V155.006H292.307V158.972Z" fill="#333333"/>
<path d="M309.406 155.006H307.852V158.972H309.406V155.006Z" fill="#333333"/>
<path d="M299.043 151.04V162.766H325.642V151.04H299.043ZM309.406 158.972H303.706V155.006H309.406V158.972ZM321.669 158.972H315.969V155.006H321.669V158.972Z" fill="#4D4D4D"/>
<path d="M321.497 155.006H319.942V158.972H321.497V155.006Z" fill="#333333"/>
<path d="M325.987 399.014H208.537L325.987 312.447V399.014Z" fill="#333333"/>
<path d="M150.849 115.861H141.349V151.902H150.849V115.861Z" fill="#4D4D4D"/>
<path d="M141.522 115.861H131.85V151.902H141.522V115.861Z" fill="#333333"/>
<path d="M160.694 115.861H151.022V151.902H160.694V115.861Z" fill="#666666"/>
<path d="M188.675 176.562H161.73V382.115H188.675V176.562Z" fill="#666666"/>
<path d="M130.122 176.562H106.632V382.115H130.122V176.562Z" fill="#333333"/>
<path d="M161.73 176.562H129.95V382.115H161.73V176.562Z" fill="#4D4D4D"/>
<path opacity="0.6" d="M113.369 182.597H109.914V379.356H113.369V182.597Z" fill="#E6E6E6"/>
<path opacity="0.6" d="M120.105 182.597H116.65V379.356H120.105V182.597Z" fill="#E6E6E6"/>
<path opacity="0.6" d="M126.841 182.597H123.386V379.356H126.841V182.597Z" fill="#E6E6E6"/>
<path d="M167.084 182.597H163.63V379.356H167.084V182.597Z" fill="#E6E6E6"/>
<path d="M173.821 182.597H170.366V379.356H173.821V182.597Z" fill="#E6E6E6"/>
<path d="M186.947 182.597H183.493V379.356H186.947V182.597Z" fill="#E6E6E6"/>
<path d="M180.557 182.597H177.102V379.356H180.557V182.597Z" fill="#E6E6E6"/>
<path opacity="0.8" d="M133.922 379.356H157.758V182.597H133.922V379.356ZM137.722 186.046H153.958V375.907H137.722V186.046Z" fill="#E6E6E6"/>
<path opacity="0.8" d="M140.831 372.631H151.022V189.15H140.831V372.631ZM144.285 193.461H145.495H146.185H147.567V368.32H146.185H145.495H144.285V193.461Z" fill="#E6E6E6"/>
<path opacity="0.8" d="M146.185 193.461H145.495V368.32H146.185V193.461Z" fill="#E6E6E6"/>
<path d="M158.103 140.521H134.268V176.562H158.103V140.521Z" fill="#4D4D4D"/>
<path d="M158.103 140.521H134.268V176.562H158.103V140.521Z" fill="#4D4D4D"/>
<path d="M181.938 140.521H158.103V176.562H181.938V140.521Z" fill="#666666"/>
<path d="M134.268 140.521H110.432V176.562H134.268V140.521Z" fill="#333333"/>
<path d="M160.521 115.861H131.85L141.349 122.414H151.022L160.521 115.861Z" fill="#808080"/>
<path d="M672.983 102.583H659.165V143.107H672.983V102.583Z" fill="#4D4D4D"/>
<path d="M658.992 102.583H645.174V143.107H658.992V102.583Z" fill="#333333"/>
<path d="M686.8 102.583H672.982V143.107H686.8V102.583Z" fill="#666666"/>
<path d="M727.562 171.043H688.527V402.636H727.562V171.043Z" fill="#666666"/>
<path d="M642.583 171.043H608.73V402.636H642.583V171.043Z" fill="#333333"/>
<path d="M688.527 171.043H642.583V402.636H688.527V171.043Z" fill="#4D4D4D"/>
<path opacity="0.4" d="M618.403 177.941H613.394V399.532H618.403V177.941Z" fill="#E6E6E6"/>
<path opacity="0.4" d="M628.248 177.941H623.239V399.532H628.248V177.941Z" fill="#E6E6E6"/>
<path opacity="0.4" d="M638.093 177.941H633.084V399.532H638.093V177.941Z" fill="#E6E6E6"/>
<path d="M696.3 177.941H691.291V399.532H696.3V177.941Z" fill="#E6E6E6"/>
<path d="M706.145 177.941H701.136V399.532H706.145V177.941Z" fill="#E6E6E6"/>
<path d="M724.971 177.941H719.962V399.532H724.971V177.941Z" fill="#E6E6E6"/>
<path d="M715.817 177.941H710.808V399.532H715.817V177.941Z" fill="#E6E6E6"/>
<path d="M648.456 399.532H683V177.941H648.456V399.532ZM653.81 181.735H677.3V395.738H653.81V181.735Z" fill="#E6E6E6"/>
<path d="M658.128 392.117H672.982V185.356H658.128V392.117ZM663.31 190.185H665.21H666.074H667.973V387.289H666.074H665.21H663.31V190.185Z" fill="#E6E6E6"/>
<path d="M666.073 190.184H665.21V387.288H666.073V190.184Z" fill="#E6E6E6"/>
<path d="M683.346 130.519H648.802V171.043H683.346V130.519Z" fill="#4D4D4D"/>
<path d="M683.346 130.519H648.802V171.043H683.346V130.519Z" fill="#4D4D4D"/>
<path d="M717.89 130.519H683.346V171.043H717.89V130.519Z" fill="#666666"/>
<path d="M648.974 130.519H614.43V171.043H648.974V130.519Z" fill="#333333"/>
<path d="M686.973 102.583H645.174L659.165 109.998H672.982L686.973 102.583Z" fill="#808080"/>
<path d="M573.323 203.117H478.845V234.502H573.323V203.117Z" fill="#E6E6E6"/>
<path d="M515.98 203.117H478.845V234.502H515.98V203.117Z" fill="#B3B3B3"/>
<path d="M515.979 234.675H442.573V387.115H515.979V234.675Z" fill="#333333"/>
<path d="M630.666 234.675H515.979V387.115H630.666V234.675Z" fill="#4D4D4D"/>
<path d="M506.998 219.155H450.518V234.674H506.998V219.155Z" fill="#333333"/>
<path d="M613.566 219.155H532.906V234.674H613.566V219.155Z" fill="#4D4D4D"/>
<path d="M548.278 191.219H515.979V203.117H548.278V191.219Z" fill="#E6E6E6"/>
<path d="M532.042 179.147H515.979V191.046H532.042V179.147Z" fill="#4D4D4D"/>
<path d="M515.807 179.147H499.744V191.046H515.807V179.147Z" fill="#333333"/>
<path d="M515.98 191.219H491.281V203.117H515.98V191.219Z" fill="#B3B3B3"/>
<path d="M514.943 179.147L515.979 151.556L516.843 179.147H514.943Z" fill="#333333"/>
<path opacity="0.12" d="M465.718 240.882H459.673V246.918H465.718V240.882Z" fill="white"/>
<path opacity="0.25" d="M474.009 240.882H467.963V246.918H474.009V240.882Z" fill="white"/>
<path opacity="0.36" d="M482.299 240.882H476.254V246.918H482.299V240.882Z" fill="white"/>
<path opacity="0.12" d="M490.59 240.882H484.544V246.918H490.59V240.882Z" fill="white"/>
<path opacity="0.14" d="M498.88 240.882H492.835V246.918H498.88V240.882Z" fill="white"/>
<path opacity="0.28" d="M465.718 248.815H459.673V254.85H465.718V248.815Z" fill="white"/>
<path opacity="0.4" d="M474.009 248.815H467.963V254.85H474.009V248.815Z" fill="white"/>
<path opacity="0.16" d="M482.299 248.815H476.254V254.85H482.299V248.815Z" fill="white"/>
<path opacity="0.17" d="M498.88 248.815H492.835V254.85H498.88V248.815Z" fill="white"/>
<path opacity="0.27" d="M465.718 256.747H459.673V262.783H465.718V256.747Z" fill="white"/>
<path opacity="0.45" d="M474.009 256.747H467.963V262.783H474.009V256.747Z" fill="white"/>
<path opacity="0.45" d="M482.299 256.747H476.254V262.783H482.299V256.747Z" fill="white"/>
<path opacity="0.48" d="M490.59 256.747H484.544V262.783H490.59V256.747Z" fill="white"/>
<path opacity="0.25" d="M498.88 256.747H492.835V262.783H498.88V256.747Z" fill="white"/>
<path opacity="0.28" d="M465.718 264.68H459.673V270.715H465.718V264.68Z" fill="white"/>
<path opacity="0.13" d="M474.009 264.68H467.963V270.715H474.009V264.68Z" fill="white"/>
<path opacity="0.07" d="M482.299 264.68H476.254V270.715H482.299V264.68Z" fill="white"/>
<path opacity="0.39" d="M490.59 264.68H484.544V270.715H490.59V264.68Z" fill="white"/>
<path opacity="0.47" d="M498.88 264.68H492.835V270.715H498.88V264.68Z" fill="white"/>
<path opacity="0.28" d="M465.718 272.612H459.673V278.648H465.718V272.612Z" fill="white"/>
<path opacity="0.2" d="M474.009 272.612H467.963V278.648H474.009V272.612Z" fill="white"/>
<path opacity="0.04" d="M482.299 272.612H476.254V278.648H482.299V272.612Z" fill="white"/>
<path opacity="0.43" d="M490.59 272.612H484.544V278.648H490.59V272.612Z" fill="white"/>
<path opacity="0.48" d="M498.88 272.612H492.835V278.648H498.88V272.612Z" fill="white"/>
<path opacity="0.28" d="M465.718 280.545H459.673V286.58H465.718V280.545Z" fill="white"/>
<path opacity="0.19" d="M474.009 280.545H467.963V286.58H474.009V280.545Z" fill="white"/>
<path opacity="0.01" d="M482.299 280.545H476.254V286.58H482.299V280.545Z" fill="white"/>
<path opacity="0.27" d="M490.59 280.545H484.544V286.58H490.59V280.545Z" fill="white"/>
<path opacity="0.24" d="M498.88 280.545H492.835V286.58H498.88V280.545Z" fill="white"/>
<path opacity="0.07" d="M465.718 288.649H459.673V294.685H465.718V288.649Z" fill="white"/>
<path opacity="0.25" d="M474.009 288.649H467.963V294.685H474.009V288.649Z" fill="white"/>
<path opacity="0.26" d="M482.299 288.649H476.254V294.685H482.299V288.649Z" fill="white"/>
<path opacity="0.39" d="M490.59 288.649H484.544V294.685H490.59V288.649Z" fill="white"/>
<path opacity="0.22" d="M498.88 288.649H492.835V294.685H498.88V288.649Z" fill="white"/>
<path opacity="0.15" d="M465.718 296.582H459.673V302.617H465.718V296.582Z" fill="white"/>
<path opacity="0.23" d="M474.009 296.582H467.963V302.617H474.009V296.582Z" fill="white"/>
<path opacity="0.05" d="M482.299 296.582H476.254V302.617H482.299V296.582Z" fill="white"/>
<path opacity="0.2" d="M490.59 296.582H484.544V302.617H490.59V296.582Z" fill="white"/>
<path opacity="0.31" d="M498.88 296.582H492.835V302.617H498.88V296.582Z" fill="white"/>
<path opacity="0.15" d="M465.718 304.514H459.673V310.55H465.718V304.514Z" fill="white"/>
<path opacity="0.33" d="M474.009 304.514H467.963V310.55H474.009V304.514Z" fill="white"/>
<path opacity="0.46" d="M482.299 304.514H476.254V310.55H482.299V304.514Z" fill="white"/>
<path opacity="0.25" d="M490.59 304.514H484.544V310.55H490.59V304.514Z" fill="white"/>
<path opacity="0.43" d="M498.88 304.514H492.835V310.55H498.88V304.514Z" fill="white"/>
<path opacity="0.4" d="M465.718 312.447H459.673V318.482H465.718V312.447Z" fill="white"/>
<path opacity="0.39" d="M474.009 312.447H467.963V318.482H474.009V312.447Z" fill="white"/>
<path opacity="0.01" d="M482.299 312.447H476.254V318.482H482.299V312.447Z" fill="white"/>
<path opacity="0.12" d="M490.59 312.447H484.544V318.482H490.59V312.447Z" fill="white"/>
<path opacity="0.07" d="M498.88 312.447H492.835V318.482H498.88V312.447Z" fill="white"/>
<path opacity="0.07" d="M465.718 320.38H459.673V326.415H465.718V320.38Z" fill="white"/>
<path opacity="0.02" d="M474.009 320.38H467.963V326.415H474.009V320.38Z" fill="white"/>
<path opacity="0.12" d="M482.299 320.38H476.254V326.415H482.299V320.38Z" fill="white"/>
<path opacity="0.23" d="M490.59 320.38H484.544V326.415H490.59V320.38Z" fill="white"/>
<path opacity="0.26" d="M498.88 320.38H492.835V326.415H498.88V320.38Z" fill="white"/>
<path opacity="0.27" d="M465.718 328.312H459.673V334.347H465.718V328.312Z" fill="white"/>
<path opacity="0.38" d="M474.009 328.312H467.963V334.347H474.009V328.312Z" fill="white"/>
<path opacity="0.05" d="M482.299 328.312H476.254V334.347H482.299V328.312Z" fill="white"/>
<path opacity="0.45" d="M490.59 328.312H484.544V334.347H490.59V328.312Z" fill="white"/>
<path opacity="0.15" d="M498.88 328.312H492.835V334.347H498.88V328.312Z" fill="white"/>
<path opacity="0.06" d="M465.718 336.244H459.673V342.28H465.718V336.244Z" fill="white"/>
<path opacity="0.47" d="M474.009 336.244H467.963V342.28H474.009V336.244Z" fill="white"/>
<path opacity="0.15" d="M482.299 336.244H476.254V342.28H482.299V336.244Z" fill="white"/>
<path opacity="0.44" d="M490.59 336.244H484.544V342.28H490.59V336.244Z" fill="white"/>
<path opacity="0.14" d="M498.88 336.244H492.835V342.28H498.88V336.244Z" fill="white"/>
<path opacity="0.15" d="M465.718 344.177H459.673V350.212H465.718V344.177Z" fill="white"/>
<path opacity="0.43" d="M474.009 344.177H467.963V350.212H474.009V344.177Z" fill="white"/>
<path opacity="0.07" d="M482.299 344.177H476.254V350.212H482.299V344.177Z" fill="white"/>
<path opacity="0.47" d="M490.59 344.177H484.544V350.212H490.59V344.177Z" fill="white"/>
<path opacity="0.11" d="M498.88 344.177H492.835V350.212H498.88V344.177Z" fill="white"/>
<path opacity="0.3" d="M536.015 240.882H529.97V246.918H536.015V240.882Z" fill="white"/>
<path opacity="0.72" d="M543.96 240.882H537.915V246.918H543.96V240.882Z" fill="white"/>
<path opacity="0.7" d="M552.078 240.882H546.033V246.918H552.078V240.882Z" fill="white"/>
<path opacity="0.52" d="M560.196 240.882H554.15V246.918H560.196V240.882Z" fill="white"/>
<path opacity="0.2" d="M568.314 240.882H562.268V246.918H568.314V240.882Z" fill="white"/>
<path opacity="0.32" d="M576.259 240.882H570.214V246.918H576.259V240.882Z" fill="white"/>
<path opacity="0.13" d="M584.377 240.882H578.332V246.918H584.377V240.882Z" fill="white"/>
<path opacity="0.38" d="M592.494 240.882H586.449V246.918H592.494V240.882Z" fill="white"/>
<path opacity="0.61" d="M600.44 240.882H594.395V246.918H600.44V240.882Z" fill="white"/>
<path d="M608.558 240.882H602.512V246.918H608.558V240.882Z" fill="white"/>
<path opacity="0.91" d="M616.675 240.882H610.63V246.918H616.675V240.882Z" fill="white"/>
<path opacity="0.66" d="M536.015 248.815H529.97V254.85H536.015V248.815Z" fill="white"/>
<path opacity="0.31" d="M543.96 248.815H537.915V254.85H543.96V248.815Z" fill="white"/>
<path opacity="0.95" d="M552.078 248.815H546.033V254.85H552.078V248.815Z" fill="white"/>
<path opacity="0.7" d="M560.196 248.815H554.15V254.85H560.196V248.815Z" fill="white"/>
<path opacity="0.12" d="M568.314 248.815H562.268V254.85H568.314V248.815Z" fill="white"/>
<path opacity="0.24" d="M576.259 248.815H570.214V254.85H576.259V248.815Z" fill="white"/>
<path opacity="0.66" d="M584.377 248.815H578.332V254.85H584.377V248.815Z" fill="white"/>
<path opacity="0.71" d="M592.494 248.815H586.449V254.85H592.494V248.815Z" fill="white"/>
<path opacity="0.42" d="M600.44 248.815H594.395V254.85H600.44V248.815Z" fill="white"/>
<path opacity="0.09" d="M608.558 248.815H602.512V254.85H608.558V248.815Z" fill="white"/>
<path opacity="0.32" d="M616.675 248.815H610.63V254.85H616.675V248.815Z" fill="white"/>
<path opacity="0.65" d="M536.015 256.747H529.97V262.783H536.015V256.747Z" fill="white"/>
<path d="M543.96 256.747H537.915V262.783H543.96V256.747Z" fill="white"/>
<path d="M552.078 256.747H546.033V262.783H552.078V256.747Z" fill="white"/>
<path opacity="0.71" d="M560.196 256.747H554.15V262.783H560.196V256.747Z" fill="white"/>
<path opacity="0.2" d="M568.314 256.747H562.268V262.783H568.314V256.747Z" fill="white"/>
<path opacity="0.19" d="M576.259 256.747H570.214V262.783H576.259V256.747Z" fill="white"/>
<path opacity="0.62" d="M584.377 256.747H578.332V262.783H584.377V256.747Z" fill="white"/>
<path opacity="0.93" d="M592.494 256.747H586.449V262.783H592.494V256.747Z" fill="white"/>
<path opacity="0.56" d="M600.44 256.747H594.395V262.783H600.44V256.747Z" fill="white"/>
<path opacity="0.57" d="M608.558 256.747H602.512V262.783H608.558V256.747Z" fill="white"/>
<path opacity="0.52" d="M616.675 256.747H610.63V262.783H616.675V256.747Z" fill="white"/>
<path opacity="0.74" d="M536.015 264.68H529.97V270.715H536.015V264.68Z" fill="white"/>
<path opacity="0.56" d="M543.96 264.68H537.915V270.715H543.96V264.68Z" fill="white"/>
<path opacity="0.78" d="M552.078 264.68H546.033V270.715H552.078V264.68Z" fill="white"/>
<path opacity="0.41" d="M560.196 264.68H554.15V270.715H560.196V264.68Z" fill="white"/>
<path opacity="0.14" d="M568.314 264.68H562.268V270.715H568.314V264.68Z" fill="white"/>
<path opacity="0.28" d="M576.259 264.68H570.214V270.715H576.259V264.68Z" fill="white"/>
<path opacity="0.36" d="M584.377 264.68H578.332V270.715H584.377V264.68Z" fill="white"/>
<path opacity="0.14" d="M592.494 264.68H586.449V270.715H592.494V264.68Z" fill="white"/>
<path opacity="0.5" d="M600.44 264.68H594.395V270.715H600.44V264.68Z" fill="white"/>
<path opacity="0.98" d="M608.558 264.68H602.512V270.715H608.558V264.68Z" fill="white"/>
<path opacity="0.59" d="M616.675 264.68H610.63V270.715H616.675V264.68Z" fill="white"/>
<path opacity="0.07" d="M536.015 272.612H529.97V278.648H536.015V272.612Z" fill="white"/>
<path opacity="0.1" d="M543.96 272.612H537.915V278.648H543.96V272.612Z" fill="white"/>
<path opacity="0.88" d="M552.078 272.612H546.033V278.648H552.078V272.612Z" fill="white"/>
<path opacity="0.68" d="M560.196 272.612H554.15V278.648H560.196V272.612Z" fill="white"/>
<path opacity="0.81" d="M568.314 272.612H562.268V278.648H568.314V272.612Z" fill="white"/>
<path opacity="0.62" d="M576.259 272.612H570.214V278.648H576.259V272.612Z" fill="white"/>
<path opacity="0.97" d="M584.377 272.612H578.332V278.648H584.377V272.612Z" fill="white"/>
<path opacity="0.81" d="M592.494 272.612H586.449V278.648H592.494V272.612Z" fill="white"/>
<path opacity="0.79" d="M600.44 272.612H594.395V278.648H600.44V272.612Z" fill="white"/>
<path opacity="0.03" d="M608.558 272.612H602.512V278.648H608.558V272.612Z" fill="white"/>
<path opacity="0.95" d="M616.675 272.612H610.63V278.648H616.675V272.612Z" fill="white"/>
<path opacity="0.62" d="M536.015 280.545H529.97V286.58H536.015V280.545Z" fill="white"/>
<path opacity="0.22" d="M543.96 280.545H537.915V286.58H543.96V280.545Z" fill="white"/>
<path opacity="0.42" d="M552.078 280.545H546.033V286.58H552.078V280.545Z" fill="white"/>
<path opacity="0.56" d="M560.196 280.545H554.15V286.58H560.196V280.545Z" fill="white"/>
<path opacity="0.03" d="M568.314 280.545H562.268V286.58H568.314V280.545Z" fill="white"/>
<path opacity="0.64" d="M576.259 280.545H570.214V286.58H576.259V280.545Z" fill="white"/>
<path opacity="0.82" d="M584.377 280.545H578.332V286.58H584.377V280.545Z" fill="white"/>
<path opacity="0.52" d="M592.494 280.545H586.449V286.58H592.494V280.545Z" fill="white"/>
<path opacity="0.46" d="M600.44 280.545H594.395V286.58H600.44V280.545Z" fill="white"/>
<path opacity="0.27" d="M608.558 280.545H602.512V286.58H608.558V280.545Z" fill="white"/>
<path opacity="0.46" d="M616.675 280.545H610.63V286.58H616.675V280.545Z" fill="white"/>
<path opacity="0.66" d="M536.015 288.649H529.97V294.685H536.015V288.649Z" fill="white"/>
<path opacity="0.7" d="M543.96 288.649H537.915V294.685H543.96V288.649Z" fill="white"/>
<path opacity="0.94" d="M552.078 288.649H546.033V294.685H552.078V288.649Z" fill="white"/>
<path opacity="0.5" d="M560.196 288.649H554.15V294.685H560.196V288.649Z" fill="white"/>
<path opacity="0.12" d="M568.314 288.649H562.268V294.685H568.314V288.649Z" fill="white"/>
<path opacity="0.36" d="M576.259 288.649H570.214V294.685H576.259V288.649Z" fill="white"/>
<path opacity="0.51" d="M584.377 288.649H578.332V294.685H584.377V288.649Z" fill="white"/>
<path opacity="0.37" d="M592.494 288.649H586.449V294.685H592.494V288.649Z" fill="white"/>
<path opacity="0.66" d="M600.44 288.649H594.395V294.685H600.44V288.649Z" fill="white"/>
<path opacity="0.42" d="M608.558 288.649H602.512V294.685H608.558V288.649Z" fill="white"/>
<path opacity="0.5" d="M616.675 288.649H610.63V294.685H616.675V288.649Z" fill="white"/>
<path opacity="0.52" d="M536.015 296.582H529.97V302.617H536.015V296.582Z" fill="white"/>
<path opacity="0.61" d="M543.96 296.582H537.915V302.617H543.96V296.582Z" fill="white"/>
<path opacity="0.84" d="M552.078 296.582H546.033V302.617H552.078V296.582Z" fill="white"/>
<path opacity="0.89" d="M560.196 296.582H554.15V302.617H560.196V296.582Z" fill="white"/>
<path opacity="0.33" d="M568.314 296.582H562.268V302.617H568.314V296.582Z" fill="white"/>
<path opacity="0.25" d="M576.259 296.582H570.214V302.617H576.259V296.582Z" fill="white"/>
<path opacity="0.95" d="M584.377 296.582H578.332V302.617H584.377V296.582Z" fill="white"/>
<path opacity="0.09" d="M592.494 296.582H586.449V302.617H592.494V296.582Z" fill="white"/>
<path opacity="0.44" d="M600.44 296.582H594.395V302.617H600.44V296.582Z" fill="white"/>
<path opacity="0.51" d="M608.558 296.582H602.512V302.617H608.558V296.582Z" fill="white"/>
<path opacity="0.97" d="M616.675 296.582H610.63V302.617H616.675V296.582Z" fill="white"/>
<path opacity="0.26" d="M536.015 304.514H529.97V310.55H536.015V304.514Z" fill="white"/>
<path opacity="0.92" d="M543.96 304.514H537.915V310.55H543.96V304.514Z" fill="white"/>
<path opacity="0.33" d="M552.078 304.514H546.033V310.55H552.078V304.514Z" fill="white"/>
<path opacity="0.23" d="M560.196 304.514H554.15V310.55H560.196V304.514Z" fill="white"/>
<path opacity="0.42" d="M568.314 304.514H562.268V310.55H568.314V304.514Z" fill="white"/>
<path opacity="0.57" d="M576.259 304.514H570.214V310.55H576.259V304.514Z" fill="white"/>
<path opacity="0.73" d="M584.377 304.514H578.332V310.55H584.377V304.514Z" fill="white"/>
<path opacity="0.87" d="M592.494 304.514H586.449V310.55H592.494V304.514Z" fill="white"/>
<path opacity="0.22" d="M600.44 304.514H594.395V310.55H600.44V304.514Z" fill="white"/>
<path opacity="0.89" d="M608.558 304.514H602.512V310.55H608.558V304.514Z" fill="white"/>
<path opacity="0.73" d="M616.675 304.514H610.63V310.55H616.675V304.514Z" fill="white"/>
<path opacity="0.35" d="M536.015 312.447H529.97V318.482H536.015V312.447Z" fill="white"/>
<path opacity="0.81" d="M543.96 312.447H537.915V318.482H543.96V312.447Z" fill="white"/>
<path opacity="0.56" d="M552.078 312.447H546.033V318.482H552.078V312.447Z" fill="white"/>
<path opacity="0.81" d="M560.196 312.447H554.15V318.482H560.196V312.447Z" fill="white"/>
<path opacity="0.87" d="M568.314 312.447H562.268V318.482H568.314V312.447Z" fill="white"/>
<path opacity="0.39" d="M576.259 312.447H570.214V318.482H576.259V312.447Z" fill="white"/>
<path opacity="0.31" d="M584.377 312.447H578.332V318.482H584.377V312.447Z" fill="white"/>
<path opacity="0.98" d="M592.494 312.447H586.449V318.482H592.494V312.447Z" fill="white"/>
<path opacity="0.17" d="M600.44 312.447H594.395V318.482H600.44V312.447Z" fill="white"/>
<path opacity="0.06" d="M608.558 312.447H602.512V318.482H608.558V312.447Z" fill="white"/>
<path opacity="0.57" d="M616.675 312.447H610.63V318.482H616.675V312.447Z" fill="white"/>
<path opacity="0.67" d="M536.015 320.38H529.97V326.415H536.015V320.38Z" fill="white"/>
<path opacity="0.83" d="M543.96 320.38H537.915V326.415H543.96V320.38Z" fill="white"/>
<path opacity="0.99" d="M552.078 320.38H546.033V326.415H552.078V320.38Z" fill="white"/>
<path opacity="0.62" d="M560.196 320.38H554.15V326.415H560.196V320.38Z" fill="white"/>
<path opacity="0.87" d="M568.314 320.38H562.268V326.415H568.314V320.38Z" fill="white"/>
<path opacity="0.14" d="M576.259 320.38H570.214V326.415H576.259V320.38Z" fill="white"/>
<path opacity="0.12" d="M584.377 320.38H578.332V326.415H584.377V320.38Z" fill="white"/>
<path opacity="0.11" d="M592.494 320.38H586.449V326.415H592.494V320.38Z" fill="white"/>
<path opacity="0.39" d="M600.44 320.38H594.395V326.415H600.44V320.38Z" fill="white"/>
<path opacity="0.58" d="M608.558 320.38H602.512V326.415H608.558V320.38Z" fill="white"/>
<path opacity="0.54" d="M616.675 320.38H610.63V326.415H616.675V320.38Z" fill="white"/>
<path opacity="0.99" d="M536.015 328.312H529.97V334.347H536.015V328.312Z" fill="white"/>
<path opacity="0.28" d="M543.96 328.312H537.915V334.347H543.96V328.312Z" fill="white"/>
<path opacity="0.78" d="M552.078 328.312H546.033V334.347H552.078V328.312Z" fill="white"/>
<path opacity="0.65" d="M560.196 328.312H554.15V334.347H560.196V328.312Z" fill="white"/>
<path opacity="0.32" d="M568.314 328.312H562.268V334.347H568.314V328.312Z" fill="white"/>
<path opacity="0.55" d="M576.259 328.312H570.214V334.347H576.259V328.312Z" fill="white"/>
<path opacity="0.4" d="M584.377 328.312H578.332V334.347H584.377V328.312Z" fill="white"/>
<path opacity="0.22" d="M592.494 328.312H586.449V334.347H592.494V328.312Z" fill="white"/>
<path opacity="0.87" d="M600.44 328.312H594.395V334.347H600.44V328.312Z" fill="white"/>
<path opacity="0.02" d="M608.558 328.312H602.512V334.347H608.558V328.312Z" fill="white"/>
<path opacity="0.39" d="M616.675 328.312H610.63V334.347H616.675V328.312Z" fill="white"/>
<path opacity="0.89" d="M536.015 336.244H529.97V342.28H536.015V336.244Z" fill="white"/>
<path opacity="0.97" d="M543.96 336.244H537.915V342.28H543.96V336.244Z" fill="white"/>
<path opacity="0.79" d="M552.078 336.244H546.033V342.28H552.078V336.244Z" fill="white"/>
<path opacity="0.41" d="M560.196 336.244H554.15V342.28H560.196V336.244Z" fill="white"/>
<path opacity="0.13" d="M568.314 336.244H562.268V342.28H568.314V336.244Z" fill="white"/>
<path opacity="0.9" d="M576.259 336.244H570.214V342.28H576.259V336.244Z" fill="white"/>
<path opacity="0.98" d="M584.377 336.244H578.332V342.28H584.377V336.244Z" fill="white"/>
<path opacity="0.67" d="M592.494 336.244H586.449V342.28H592.494V336.244Z" fill="white"/>
<path opacity="0.65" d="M600.44 336.244H594.395V342.28H600.44V336.244Z" fill="white"/>
<path opacity="0.89" d="M608.558 336.244H602.512V342.28H608.558V336.244Z" fill="white"/>
<path opacity="0.98" d="M616.675 336.244H610.63V342.28H616.675V336.244Z" fill="white"/>
<path opacity="0.29" d="M536.015 344.177H529.97V350.212H536.015V344.177Z" fill="white"/>
<path opacity="0.74" d="M543.96 344.177H537.915V350.212H543.96V344.177Z" fill="white"/>
<path opacity="0.64" d="M552.078 344.177H546.033V350.212H552.078V344.177Z" fill="white"/>
<path opacity="0.65" d="M560.196 344.177H554.15V350.212H560.196V344.177Z" fill="white"/>
<path opacity="0.07" d="M568.314 344.177H562.268V350.212H568.314V344.177Z" fill="white"/>
<path opacity="0.16" d="M576.259 344.177H570.214V350.212H576.259V344.177Z" fill="white"/>
<path opacity="0.84" d="M584.377 344.177H578.332V350.212H584.377V344.177Z" fill="white"/>
<path opacity="0.88" d="M592.494 344.177H586.449V350.212H592.494V344.177Z" fill="white"/>
<path opacity="0.57" d="M600.44 344.177H594.395V350.212H600.44V344.177Z" fill="white"/>
<path opacity="0.31" d="M608.558 344.177H602.512V350.212H608.558V344.177Z" fill="white"/>
<path opacity="0.03" d="M616.675 344.177H610.63V350.212H616.675V344.177Z" fill="white"/>
<path d="M433.937 202.083H376.94V380.391H433.937V202.083Z" fill="#333333"/>
<path d="M402.848 193.116H376.94V203.117H402.848V193.116Z" fill="#333333"/>
<path d="M391.966 187.253H376.94V193.116H391.966V187.253Z" fill="#333333"/>
<path opacity="0.25" d="M409.929 214.671H400.602V223.983H409.929V214.671Z" fill="white"/>
<path opacity="0.15" d="M409.929 237.606H400.602V246.918H409.929V237.606Z" fill="white"/>
<path opacity="0.19" d="M409.929 283.304H400.602V292.616H409.929V283.304Z" fill="white"/>
<path opacity="0.17" d="M409.929 306.067H400.602V315.379H409.929V306.067Z" fill="white"/>
<path opacity="0.22" d="M409.929 328.829H400.602V338.141H409.929V328.829Z" fill="white"/>
<path d="M409.929 351.765H400.602V361.077H409.929V351.765Z" fill="white"/>
<path d="M391.621 301.411H338.25V317.103H391.621V301.411Z" fill="#333333"/>
<path d="M418.22 301.411H391.621V317.103H418.22V301.411Z" fill="#4D4D4D"/>
<path d="M338.25 301.411L354.832 293.478L391.621 301.411H338.25Z" fill="#333333"/>
<path d="M354.832 293.478L391.621 301.411H418.22L354.832 293.478Z" fill="#4D4D4D"/>
<path d="M404.057 312.447H325.987V383.839H404.057V312.447Z" fill="#333333"/>
<path d="M429.965 312.447H404.057V383.839H429.965V312.447Z" fill="#4D4D4D"/>
<path opacity="0.81" d="M423.92 317.448H409.929V322.621H423.92V317.448Z" fill="white"/>
<path opacity="0.76" d="M423.92 326.932H409.929V332.106H423.92V326.932Z" fill="white"/>
<path opacity="0.32" d="M423.92 336.417H409.929V341.59H423.92V336.417Z" fill="white"/>
<path opacity="0.49" d="M423.92 346.074H409.929V351.247H423.92V346.074Z" fill="white"/>
<path opacity="0.1" d="M352.413 317.448H338.423V322.621H352.413V317.448Z" fill="white"/>
<path opacity="0.04" d="M371.931 317.448H357.94V322.621H371.931V317.448Z" fill="white"/>
<path opacity="0.07" d="M391.621 317.448H377.63V322.621H391.621V317.448Z" fill="white"/>
<path opacity="0.06" d="M352.413 326.933H338.423V332.106H352.413V326.933Z" fill="white"/>
<path opacity="0.44" d="M371.931 326.933H357.94V332.106H371.931V326.933Z" fill="white"/>
<path opacity="0.24" d="M391.621 326.933H377.63V332.106H391.621V326.933Z" fill="white"/>
<path opacity="0.55" d="M352.413 336.417H338.423V341.59H352.413V336.417Z" fill="white"/>
<path opacity="0.02" d="M371.931 336.417H357.94V341.59H371.931V336.417Z" fill="white"/>
<path opacity="0.14" d="M391.621 336.417H377.63V341.59H391.621V336.417Z" fill="white"/>
<path opacity="0.43" d="M352.413 346.074H338.423V351.247H352.413V346.074Z" fill="white"/>
<path opacity="0.41" d="M371.931 346.074H357.94V351.247H371.931V346.074Z" fill="white"/>
<path opacity="0.46" d="M391.621 346.074H377.63V351.247H391.621V346.074Z" fill="white"/>
<path d="M24.2448 241.055H-24.1169V389.875H24.2448V241.055Z" fill="#333333"/>
<path d="M79.3425 241.055H24.4175V389.875H79.3425V241.055Z" fill="#4D4D4D"/>
<path d="M24.2448 253.644H-24.1169V256.231H24.2448V253.644Z" fill="#4D4D4D"/>
<path d="M79.3425 253.644H24.4175V256.231H79.3425V253.644Z" fill="#333333"/>
<path opacity="0.25" d="M6.28186 259.162H1.10022V264.336H6.28186V259.162Z" fill="white"/>
<path opacity="0.12" d="M20.4449 259.162H15.2633V264.336H20.4449V259.162Z" fill="white"/>
<path opacity="0.47" d="M6.28186 266.232H1.10022V271.406H6.28186V266.232Z" fill="white"/>
<path opacity="0.22" d="M13.3635 266.232H8.18188V271.406H13.3635V266.232Z" fill="white"/>
<path opacity="0.32" d="M20.4449 266.232H15.2633V271.406H20.4449V266.232Z" fill="white"/>
<path opacity="0.28" d="M6.28186 273.303H1.10022V278.476H6.28186V273.303Z" fill="white"/>
<path opacity="0.2" d="M20.4449 273.303H15.2633V278.476H20.4449V273.303Z" fill="white"/>
<path opacity="0.05" d="M6.28186 280.373H1.10022V285.546H6.28186V280.373Z" fill="white"/>
<path opacity="0.08" d="M13.3635 280.373H8.18188V285.546H13.3635V280.373Z" fill="white"/>
<path opacity="0.08" d="M6.28186 287.443H1.10022V292.616H6.28186V287.443Z" fill="white"/>
<path opacity="0.02" d="M13.3635 287.443H8.18188V292.616H13.3635V287.443Z" fill="white"/>
<path opacity="0.2" d="M6.28186 294.513H1.10022V299.687H6.28186V294.513Z" fill="white"/>
<path opacity="0.23" d="M13.3635 294.513H8.18188V299.687H13.3635V294.513Z" fill="white"/>
<path opacity="0.24" d="M13.3635 301.584H8.18188V306.757H13.3635V301.584Z" fill="white"/>
<path opacity="0.02" d="M6.28186 308.654H1.10022V313.827H6.28186V308.654Z" fill="white"/>
<path opacity="0.04" d="M13.3635 308.654H8.18188V313.827H13.3635V308.654Z" fill="white"/>
<path opacity="0.3" d="M20.4449 308.654H15.2633V313.827H20.4449V308.654Z" fill="white"/>
<path opacity="0.4" d="M20.4449 315.552H15.2633V320.725H20.4449V315.552Z" fill="white"/>
<path opacity="0.19" d="M13.3635 322.622H8.18188V327.795H13.3635V322.622Z" fill="white"/>
<path opacity="0.43" d="M20.4449 322.622H15.2633V327.795H20.4449V322.622Z" fill="white"/>
<path opacity="0.42" d="M6.28186 329.692H1.10022V334.865H6.28186V329.692Z" fill="white"/>
<path opacity="0.31" d="M20.4449 329.692H15.2633V334.865H20.4449V329.692Z" fill="white"/>
<path opacity="0.31" d="M6.28186 336.762H1.10022V341.936H6.28186V336.762Z" fill="white"/>
<path opacity="0.33" d="M20.4449 336.762H15.2633V341.936H20.4449V336.762Z" fill="white"/>
<path opacity="0.17" d="M6.28186 343.832H1.10022V349.006H6.28186V343.832Z" fill="white"/>
<path opacity="0.01" d="M13.3635 343.832H8.18188V349.006H13.3635V343.832Z" fill="white"/>
<path opacity="0.48" d="M20.4449 343.832H15.2633V349.006H20.4449V343.832Z" fill="white"/>
<path opacity="0.02" d="M6.28186 350.902H1.10022V356.076H6.28186V350.902Z" fill="white"/>
<path opacity="0.17" d="M13.3635 350.902H8.18188V356.076H13.3635V350.902Z" fill="white"/>
<path opacity="0.42" d="M20.4449 350.902H15.2633V356.076H20.4449V350.902Z" fill="white"/>
<path opacity="0.08" d="M13.3635 259.162H8.18188V264.336H13.3635V259.162Z" fill="white"/>
<path opacity="0.08" d="M13.3635 273.303H8.18188V278.476H13.3635V273.303Z" fill="white"/>
<path opacity="0.01" d="M20.4449 280.373H15.2633V285.546H20.4449V280.373Z" fill="white"/>
<path opacity="0.12" d="M20.4449 287.443H15.2633V292.616H20.4449V287.443Z" fill="white"/>
<path opacity="0.13" d="M6.28186 301.584H1.10022V306.757H6.28186V301.584Z" fill="white"/>
<path opacity="0.07" d="M20.4449 301.584H15.2633V306.757H20.4449V301.584Z" fill="white"/>
<path opacity="0.02" d="M6.28186 315.552H1.10022V320.725H6.28186V315.552Z" fill="white"/>
<path opacity="0.14" d="M13.3635 315.552H8.18188V320.725H13.3635V315.552Z" fill="white"/>
<path opacity="0.02" d="M13.3635 329.692H8.18188V334.865H13.3635V329.692Z" fill="white"/>
<path opacity="0.06" d="M13.3635 336.762H8.18188V341.936H13.3635V336.762Z" fill="white"/>
<g opacity="0.7">
<path opacity="0.7" d="M34.7807 256.23H29.4264V383.322H34.7807V256.23Z" fill="#E6E6E6"/>
<path opacity="0.7" d="M43.9348 256.23H38.5806V383.322H43.9348V256.23Z" fill="#E6E6E6"/>
<path opacity="0.7" d="M53.2617 256.23H47.9075V383.322H53.2617V256.23Z" fill="#E6E6E6"/>
<path opacity="0.7" d="M62.5887 256.23H57.2344V383.322H62.5887V256.23Z" fill="#E6E6E6"/>
<path opacity="0.7" d="M71.9156 256.23H66.5613V383.322H71.9156V256.23Z" fill="#E6E6E6"/>
</g>
<path d="M106.978 383.322H-0.454224L106.978 289.857V383.322Z" fill="#333333"/>
<path d="M91.433 364.871H67.0795L75.5428 350.73H82.9697L91.433 364.871Z" fill="#4D4D4D"/>
</g>
</g>
<defs>
<clipPath id="clip0_75309_2433">
<rect width="1437" height="352" fill="white"/>
</clipPath>
</defs>
</svg>
